<?xml version="1.0" encoding="UTF-8" standalone="no"?>
<!-- Created with Inkscape (http://www.inkscape.org/) -->

<svg
   xmlns:ns0="http://www.iki.fi/pav/software/textext/"
   xmlns:dc="http://purl.org/dc/elements/1.1/"
   xmlns:cc="http://creativecommons.org/ns#"
   xmlns:rdf="http://www.w3.org/1999/02/22-rdf-syntax-ns#"
   xmlns:svg="http://www.w3.org/2000/svg"
   xmlns="http://www.w3.org/2000/svg"
   xmlns:xlink="http://www.w3.org/1999/xlink"
   xmlns:sodipodi="http://sodipodi.sourceforge.net/DTD/sodipodi-0.dtd"
   xmlns:inkscape="http://www.inkscape.org/namespaces/inkscape"
   width="744.09448819"
   height="1052.3622047"
   id="svg2"
   version="1.1"
   inkscape:version="0.48.4 r9939"
   sodipodi:docname="phaseslope.svg">
  <sodipodi:namedview
     id="base"
     pagecolor="#ffffff"
     bordercolor="#666666"
     borderopacity="1.0"
     inkscape:pageopacity="0.0"
     inkscape:pageshadow="2"
     inkscape:zoom="2.8"
     inkscape:cx="421.13902"
     inkscape:cy="703.42567"
     inkscape:document-units="px"
     inkscape:current-layer="layer5"
     showgrid="false"
     inkscape:window-width="1600"
     inkscape:window-height="853"
     inkscape:window-x="0"
     inkscape:window-y="0"
     inkscape:window-maximized="1">
    <inkscape:grid
       id="grid2985"
       type="xygrid" />
  </sodipodi:namedview>
  <defs
     id="defs4">
    <marker
       inkscape:stockid="Arrow2Mend"
       orient="auto"
       refY="0.0"
       refX="0.0"
       id="Arrow2Mend"
       style="overflow:visible;">
      <path
         id="path7163"
         style="fill-rule:evenodd;stroke-width:0.62500000;stroke-linejoin:round;"
         d="M 8.7185878,4.0337352 L -2.2072895,0.016013256 L 8.7185884,-4.0017078 C 6.9730900,-1.6296469 6.9831476,1.6157441 8.7185878,4.0337352 z "
         transform="scale(0.6) rotate(180) translate(0,0)" />
    </marker>
    <clipPath
       clipPathUnits="userSpaceOnUse"
       id="clipPath3039">
      <path
         inkscape:connector-curvature="0"
         d="m 3,2 4777,0 0,3848 L 3,3850 3,2 z"
         id="path3041" />
    </clipPath>
    <clipPath
       clipPathUnits="userSpaceOnUse"
       id="clipPath3229">
      <path
         inkscape:connector-curvature="0"
         d="m 229.168,123.332 4464.16,0 0,3522.5 -4464.16,0 0,-3522.5 z"
         id="path3231" />
    </clipPath>
    <clipPath
       clipPathUnits="userSpaceOnUse"
       id="clipPath3039-4">
      <path
         inkscape:connector-curvature="0"
         d="m 3,2 4777,0 0,3848 L 3,3850 3,2 z"
         id="path3041-6" />
    </clipPath>
    <clipPath
       clipPathUnits="userSpaceOnUse"
       id="clipPath3229-3">
      <path
         inkscape:connector-curvature="0"
         d="m 229.168,123.332 4464.16,0 0,3522.5 -4464.16,0 0,-3522.5 z"
         id="path3231-8" />
    </clipPath>
    <clipPath
       clipPathUnits="userSpaceOnUse"
       id="clipPath18">
      <path
         inkscape:connector-curvature="0"
         d="m 6,2 4694,0 0,3738 L 6,3740 6,2 z"
         id="path20" />
    </clipPath>
    <clipPath
       clipPathUnits="userSpaceOnUse"
       id="clipPath222">
      <path
         inkscape:connector-curvature="0"
         d="m 149.168,123.332 4464.16,0 0,3522.5 -4464.16,0 0,-3522.5 z"
         id="path224" />
    </clipPath>
    <clipPath
       clipPathUnits="userSpaceOnUse"
       id="clipPath222-3">
      <path
         inkscape:connector-curvature="0"
         d="m 149.168,123.332 4464.16,0 0,3522.5 -4464.16,0 0,-3522.5 z"
         id="path224-2" />
    </clipPath>
  </defs>
  <metadata
     id="metadata7">
    <rdf:RDF>
      <cc:Work
         rdf:about="">
        <dc:format>image/svg+xml</dc:format>
        <dc:type
           rdf:resource="http://purl.org/dc/dcmitype/StillImage" />
        <dc:title></dc:title>
      </cc:Work>
    </rdf:RDF>
  </metadata>
  <g
     inkscape:groupmode="layer"
     id="layer2"
     inkscape:label="old"
     style="display:none"
     sodipodi:insensitive="true">
    <g
       id="g3033"
       transform="matrix(0.0625,0,0,-0.0625,303.779,434.3934)"
       style="stroke:#aa0000;display:inline">
      <g
         id="g3225"
         style="stroke:#aa0000">
        <g
           id="g3227"
           clip-path="url(#clipPath3229-3)"
           style="stroke:#aa0000">
          <path
             inkscape:connector-curvature="0"
             d="m 229.168,711.668 20,-48.336"
             style="fill:none;stroke:#aa0000;stroke-width:10;stroke-linecap:butt;stroke-linejoin:round;stroke-miterlimit:10;stroke-opacity:1;stroke-dasharray:none"
             id="path3237" />
          <g
             id="g4346"
             style="stroke:#aa0000;stroke-width:32;stroke-miterlimit:10;stroke-dasharray:none">
            <path
               id="path3239"
               style="fill:none;stroke:#aa0000;stroke-width:32;stroke-linecap:butt;stroke-linejoin:round;stroke-miterlimit:10;stroke-opacity:1;stroke-dasharray:none"
               d="m 2241.67,1956.67 20.83,71.66 20,70 20,65.84 20,61.66 20,54.17 20,48.33 20,39.17 20.83,30 20,21.67 20,11.66 20,1.67 20,-6.67 20,-15.83 20.84,-24.17 20,-31.66 20,-37.5 20,-41.67 20,-45.83 20,-48.34 20.83,-48.33 20,-47.5 20,-45 20,-41.67 20,-35.83 20,-30 20,-22.5 20.83,-14.17 20,-5.83 20,4.17 20,13.33 20,23.33 20,32.5 20.84,40.84 20,49.16 20,56.67 20,61.67 20,67.5 20,70 20.83,72.5 20,72.5 20,71.66 20,69.17 20,65 20,60 20,54.17 20.83,45.83 20,37.5 20,28.33 20,20 20,9.17 20,0.83 20.84,-9.16 20,-17.5 20,-25.84 20,-32.5 20,-38.33 20,-43.33 20.83,-46.67 20,-47.5 20,-48.33 20,-47.5 20,-45 20,-40 20,-35 20.83,-28.34 20,-21.66 20,-12.5 20,-3.34 20,5.84 20,15.83 20.84,25 20,34.17 20,42.5 20,50.83 20,57.5 20,63.33 20.83,67.5 20,70.84 20,72.5 20,73.33 20,70.83 20,68.34 20,64.16 20.83,59.17 20,51.67 20,45 20,35.83 20,26.67 20,17.5 20.84,7.5 20,-1.67 20,-10 20,-20 20,-26.67 20,-34.16 20.83,-39.17 20,-44.17 20,-46.66 20,-48.34"
               inkscape:connector-curvature="0" />
            <path
               id="path3241"
               style="fill:none;stroke:#aa0000;stroke-width:32;stroke-linecap:butt;stroke-linejoin:round;stroke-miterlimit:10;stroke-opacity:1;stroke-dasharray:none"
               d="m 249.168,663.332 20,-46.664 20,-44.168 20,-39.168 20,-34.164 20,-26.668 20.832,-20 20,-10 20,-1.668 20,7.5 20,17.5 20,26.668 20.832,35.832 20,44.168 20,52.5 20,58.332 20,65 20,68.336 20.836,70.832 20,73.332 20,72.498 20,70.84 20,67.5 20,63.33 20,57.5 20.832,50.83 20,42.5 20,34.17 20,25 20,15.83 20,5.84 20.832,-4.17 20,-12.5 20,-20.83 20,-28.34 20,-35 20,-40 20.836,-45 20.002,-47.5 20,-48.33 20,-48.33 20,-45.84 20,-43.33 20,-38.33 20.83,-32.502 20,-25.836 20,-17.5 20,-9.164 20,0.832 20,9.168 20.83,19.164 20,29.168 20,37.5 20,45.83 20,53.34 20,60 20.84,65.83 20,69.17 20,71.66 20,72.5 20,72.5 20,70 20,67.5 20.83,61.67 20,56.67 20,49.16 20,40.84 20,32.5 20,23.33 20.83,13.33 20,4.17 20,-5.83 20,-14.17 20,-22.5 20,-30 20.84,-35.83 20,-41.67 20,-45 20,-47.5 20,-48.33 20,-48.34 20,-45.83 20.83,-42.5 20,-36.67 20,-31.66 20,-24.17 20,-15.83 20,-6.67 20.83,1.67 20,11.66 20,21.67 20,30 20,39.17 20,48.33 20.84,54.17 20,61.66 20,65.84 20,70 20,71.66 20,73.34"
               inkscape:connector-curvature="0" />
          </g>
          <path
             inkscape:connector-curvature="0"
             d="m 229.168,711.668 20,-48.336"
             style="fill:none;stroke:#aa0000;stroke-width:10;stroke-linecap:butt;stroke-linejoin:round;stroke-miterlimit:10;stroke-opacity:1;stroke-dasharray:none"
             id="path3243" />
        </g>
      </g>
    </g>
    <g
       transform="matrix(0.0625,0,0,-0.0625,303.779,434.3934)"
       id="g4350"
       style="stroke:#006680;stroke-width:32;stroke-miterlimit:10;stroke-dasharray:none;display:inline">
      <path
         id="path3233"
         style="fill:none;stroke:#006680;stroke-width:32;stroke-linecap:butt;stroke-linejoin:round;stroke-miterlimit:10;stroke-opacity:1;stroke-dasharray:none"
         d="m 2241.67,417.5 20.83,72.5 20,70 20,65.832 20,60.836 20,55 20,47.5 20,39.164 20.83,30.836 20,20.832 20,11.668 20,2.5 20,-7.5 20,-15.836 20.84,-24.164 20,-30.836 20,-37.5 20,-42.5 20,-45.832 20,-47.5 20.83,-48.332 20,-47.5 20,-45.836 20,-40.832 20,-36.668 20,-30 20,-22.5 20.83,-14.164 20,-5 20,4.164 20,13.336 20,23.332 20,31.668 20.84,41.664 20,49.168 20,55.832 20,62.5 20,66.668 20,70.832 20.83,71.668 20,73.332 20,71.668 20,69.17 20,-704.17 20,60 20,53.332 20.83,45.836 20,37.5 20,29.164 20,19.168 20,10 20,0 20.84,-9.168 20,-17.5 20,-25.832 20,-32.5 20,-38.332 20,-42.5 L 3410,395 l 20,-48.332 20,720.832 20,-46.67 20,-44.998 20,-40.832 20,-35 20.83,-28.332 20,-20.836 20,-12.5 20,-3.332 20,5.832 20,15.836 20.84,25 20,34.164 20,42.5 20,50.838 20,57.5 20,-706.67 20.83,68.332 20,70.836 20,72.5 20,72.5 20,71.664 20,68.336 20,64.164 20.83,58.336 20,52.5 20,44.162 20,35.84 20,26.66 20,17.5 20.84,8.34 20,-1.67 20,-10.83 20,-19.17 20,-27.5 20,-33.332 20.83,-40 20,-43.336 20,-46.664 20,-48.336"
         inkscape:connector-curvature="0" />
      <path
         id="path3235"
         style="fill:none;stroke:#006680;stroke-width:32;stroke-linecap:butt;stroke-linejoin:round;stroke-miterlimit:10;stroke-opacity:1;stroke-dasharray:none"
         d="m 249.168,663.332 20,-46.664 20,-44.168 20,-39.168 20,-34.164 20,-26.668 20.832,-20 20,-10 20,-1.668 20,7.5 20,17.5 20,26.668 20.832,35.832 20,44.168 20,52.5 20,58.332 20,65 20,68.336 20.836,70.832 20,73.332 20,72.498 20,-698.33 20,67.5 20,63.332 20,57.5 20.832,50.836 20,42.5 20,34.164 20,25 20,15 20,5.836 20.832,-3.336 20,-12.5 20,-20.832 20,-28.332 20,-35 20,-40.836 20.836,-44.164 20.002,-47.5 20,-48.336 20,-48.332 20,723.33 20,-43.33 20,-38.33 20.83,-32.502 20,-25.836 20,-17.5 20,-9.164 20,0.832 20,9.168 20.83,19.164 20,29.168 20,37.5 20,45.83 20,-715.83 20,60 20.84,65.832 20,69.168 20,71.668 20,72.5 20,72.5 20,70 20,67.5 20.83,61.664 20,56.668 20,49.17 20,-728.338 20,32.5 20,22.5 20.83,14.168 20,3.332 20,-5 20,-14.164 20,-22.5 20,-30 20.84,733.332 20,-41.67 20,-44.998 20,-47.5 20,-49.164 20,-47.5 20,-45.836 20.83,-42.5 20,-37.5 20,-30.832 20,-24.168 20,-15.832 20,-7.5 20.83,2.5 20,11.668 20,20.832 20,30.832 20,39.168 20,47.5 20.84,55 20,61.668 20,65.832 20,70 20,-697.5 20,72.5"
         inkscape:connector-curvature="0" />
    </g>
  </g>
  <g
     inkscape:groupmode="layer"
     id="layer10"
     inkscape:label="frame2"
     style="display:inline">
    <path
       style="fill:none;stroke:#000000;stroke-width:1px;stroke-linecap:butt;stroke-linejoin:miter;stroke-opacity:1;marker-end:url(#Arrow2Mend)"
       d="m 318.89764,442.91336 0,-109.84252"
       id="path7128"
       inkscape:connector-curvature="0"
       sodipodi:nodetypes="cc" />
    <path
       style="fill:none;stroke:#000000;stroke-width:1px;stroke-linecap:butt;stroke-linejoin:miter;stroke-opacity:1;marker-end:url(#Arrow2Mend)"
       d="m 311.81102,389.76376 223.22835,0"
       id="path7130"
       inkscape:connector-curvature="0"
       sodipodi:nodetypes="cc" />
  </g>
  <g
     inkscape:groupmode="layer"
     id="layer13"
     inkscape:label="unwrapped"
     style="display:inline"
     sodipodi:insensitive="true">
    <g
       transform="matrix(0.0625,0,0,-0.0625,309.58941,452.21988)"
       style="opacity:0.92241378;stroke:#aa0000;stroke-width:32;stroke-miterlimit:4;stroke-dasharray:none;stroke-dashoffset:0"
       id="g4340">
      <path
         id="path232"
         style="fill:none;stroke:#aa0000;stroke-width:32;stroke-linecap:butt;stroke-linejoin:round;stroke-miterlimit:4;stroke-opacity:1;stroke-dasharray:none;stroke-dashoffset:0"
         d="m 2161.67,2124.17 20.83,64.16 20,63.34 20,59.16 20,55 20,49.17 20,42.5 20,35.83 20.83,27.5 20,19.17 20,10 20,2.5 20,-6.67 20,-14.16 20.84,-21.67 20,-28.33 20,-33.34 20,-38.33 20,-40.83 20,-43.34 20.83,-43.33 20,-43.33 20,-40 20,-37.5 20,-32.5 20,-26.67 20,-20.83 20.83,-12.5 20,-5 20,4.16 20,11.67 20,20.83 20,29.17 20.84,36.67 20,44.16 20,50.84 20,55.83 20,60 20,63.33 20.83,65 20,65.84 20,64.16 20,62.5 20,58.34 20,54.16 20,47.5 20.83,41.67 20,34.17 20,25.83 20,16.67 20,9.16 20,0 20.84,-7.5 20,-15.83 20,-23.33 20,-29.17 20,-35 20,-38.33 20.83,-41.67 20,-43.33 20,-43.34 20,-42.5 20,-40"
         inkscape:connector-curvature="0"
         sodipodi:nodetypes="ccccccccccccccccccccccccccccccccccccccccccccccccccccccccccccccc" />
      <path
         id="path234"
         style="fill:none;stroke:#aa0000;stroke-width:32;stroke-linecap:butt;stroke-linejoin:round;stroke-miterlimit:4;stroke-opacity:1;stroke-dasharray:none;stroke-dashoffset:0"
         d="m 169.168,961.668 20,-42.5 20,-39.168 20,-35.832 20,-30 20,-24.168 20.832,-17.5 20,-10 20,-0.832 20,6.664 20,15.836 20,24.164 20.832,32.5 20,39.168 20,47.5 20,52.5 20,57.5 20,61.67 20.836,64.16 20,65.84 20,65 20,63.33 20,60.83 20,57.5 20,51.67 20.832,45 20,38.33 20,30.84 20,22.5 20,14.16 20,5 20.832,-3.33 20,-10.83 20,-19.17 20,-25 20,-31.67 20,-36.66 20.836,-40 20,-42.5 20,-43.34 20,-43.33 20,-41.67 20.002,-39.16 20,-34.17 20.83,-29.17 20,-23.33 20,-15.83 20,-7.5 20,0 20,8.33 20.83,17.5 20,25.83 20,34.17 20,40.83 20,48.34 20,54.16 20.84,58.34 20,62.5 20,64.16 20,65.84 20,65 20,63.33 20,60 20.83,55.83 20,50 20,44.17 20,37.5 20,29.17 20,20.83 20.83,11.67 20,4.16 20,-5 20,-13.33 20,-20 20,-26.67 20.84,-32.5 20,-37.5 20,-40.83 20,-42.5 20,-43.33 20,-43.34 20,-40.83 20.83,-38.33 20,-33.34 20,-28.33 20,-21.67 20,-14.16 20,-6.67 20.83,2.5 20,10 20,19.17 20,27.5 20,35 20,43.33 20.84,49.17 20,55 20,59.16 20,62.5 20,65 20,65.84"
         inkscape:connector-curvature="0" />
    </g>
  </g>
  <g
     inkscape:groupmode="layer"
     id="layer12"
     inkscape:label="wrapped"
     style="display:inline"
     sodipodi:insensitive="true">
    <g
       transform="matrix(0.0625,0,0,-0.0625,309.55307,452.15801)"
       style="opacity:0.92241378;stroke:#006680;stroke-width:32;stroke-miterlimit:4;stroke-dasharray:64, 32;stroke-dashoffset:0"
       id="g220"
       clip-path="url(#clipPath222-3)">
      <path
         inkscape:connector-curvature="0"
         d="m 2161.67,740.832 20.83,65 20,62.5 20,59.168 20,55 20,50 20,42.5 20,35 20.83,27.5 20,19.17 20,10.83 20,1.67 20,-6.67 20,-14.17 20.84,-21.66 20,-28.34 20,-33.33 20,-37.5 20,-41.668 20,-43.332 20.83,-43.332 20,-42.5 20,-40.836 20,-37.5 20,-32.5 20,-26.664 20,-20 20.83,-13.336 20,-4.164 20,3.332 20,12.5 20,20.832 20,28.336 20.84,37.5 20,44.164 20,50 20,55.836 20,60.832 20,63.33 20.83,65 20,65 20,65 20,61.67 20,58.33 20,54.17 20,48.33 20.83,40.84 20,34.16 20,25.84 20,17.5 20,8.33 20,0.83 20.84,-8.33 20,-15.83 20,-23.34 20,-29.16 20,-34.17 20,-39.17 20.83,-41.66 20,-43.34 20,-43.33 20,-42.5 20,-40"
         style="fill:none;stroke:#006680;stroke-width:32;stroke-linecap:butt;stroke-linejoin:round;stroke-miterlimit:4;stroke-opacity:1;stroke-dasharray:64, 32;stroke-dashoffset:0"
         id="path226"
         sodipodi:nodetypes="ccccccccccccccccccccccccccccccccccccccccccccccccccccccccccccccc" />
      <path
         inkscape:connector-curvature="0"
         d="m 169.168,961.668 20,-42.5 20,-39.168 20,-35.832 20,-30 20,-24.168 20.832,-17.5 20,-10 20,-0.832 20,6.664 20,15.836 20,24.164 20.832,32.5 20,39.168 20,47.5 20,52.5 20,57.5 20,61.67 20.836,64.16 20,65.84 20,65 20,63.33 20,60.83 20,57.5 20,51.67 20.832,45 20,38.33 20,30.84 20,22.5 20,14.16 20,5 20.832,-3.33 20,-10.83 20,-19.17 20,-25 20,-31.67 20,-36.66 20.836,-40 20,-42.5 20,-43.34 20,-43.33 20,-41.67 20.002,-39.16 20,-34.17 20.83,-29.17 20,-23.33 20,-15.83 20,-7.5 20,0 20,8.33 20.83,17.5 20,25.83 20,34.17 20,40.83 20,48.34 20,54.16 20.84,58.34 20,62.5 20,64.16 20,65.84 20,-1318.338 20,63.336 20,60 20.83,55.832 20,50.832 20,44.168 20,36.668 20,29.164 20,20.836 20.83,12.5 20,3.332 20,-5 20,-12.5 20,-20 20,-27.5 20.84,-32.5 20,-36.668 20,-40.832 20,-42.5 20,-44.168 20,-42.5 20,-41.664 20.83,-37.5 20,-34.168 20,1355 20,-21.67 20,-14.16 20,-6.67 20.83,2.5 20,10 20,19.17 20,27.5 20,-1347.502 20,42.5 20.84,49.164 20,55 20,60 20,62.5 20,65 20,65"
         style="fill:none;stroke:#006680;stroke-width:32;stroke-linecap:butt;stroke-linejoin:round;stroke-miterlimit:4;stroke-opacity:1;stroke-dasharray:64, 32;stroke-dashoffset:0"
         id="path228" />
      <path
         inkscape:connector-curvature="0"
         d="m 149.168,1005 20,-43.332"
         style="fill:none;stroke:#006680;stroke-width:32;stroke-linecap:butt;stroke-linejoin:round;stroke-miterlimit:4;stroke-opacity:1;stroke-dasharray:64, 32;stroke-dashoffset:0"
         id="path230" />
      <path
         inkscape:connector-curvature="0"
         d="m 149.168,1005 20,-43.332"
         style="fill:none;stroke:#006680;stroke-width:32;stroke-linecap:butt;stroke-linejoin:round;stroke-miterlimit:4;stroke-opacity:1;stroke-dasharray:64, 32;stroke-dashoffset:0"
         id="path236" />
    </g>
  </g>
  <g
     inkscape:groupmode="layer"
     id="layer5"
     inkscape:label="top"
     style="display:inline">
    <path
       style="fill:none;stroke:#000000;stroke-width:1;stroke-linecap:butt;stroke-linejoin:miter;stroke-miterlimit:4;stroke-opacity:1;stroke-dasharray:2,1;stroke-dashoffset:0"
       d="m 523.87374,345.10121 -212.59843,0"
       id="path4699"
       inkscape:connector-curvature="0"
       sodipodi:nodetypes="cc" />
    <path
       style="fill:none;stroke:#000000;stroke-width:1;stroke-linecap:butt;stroke-linejoin:miter;stroke-miterlimit:4;stroke-opacity:1;stroke-dasharray:2,1;stroke-dashoffset:0"
       d="m 524.23088,433.89058 -212.59843,0"
       id="path4699-5-2"
       inkscape:connector-curvature="0"
       sodipodi:nodetypes="cc" />
    <g
       transform="translate(71.720831,234.35539)"
       ns0:text="$2^{15}$"
       ns0:preamble=""
       id="g7885">
      <defs
         id="defs7887">
        <g
           id="g7889">
          <symbol
             style="overflow:visible"
             overflow="visible"
             id="textext-0ec877f8-0">
            <path
               inkscape:connector-curvature="0"
               style="stroke:none"
               d=""
               id="path7892" />
          </symbol>
          <symbol
             style="overflow:visible"
             overflow="visible"
             id="textext-0ec877f8-1">
            <path
               inkscape:connector-curvature="0"
               style="stroke:none"
               d="m 1.265625,-0.765625 1.0625,-1.03125 c 1.546875,-1.375 2.140625,-1.90625 2.140625,-2.90625 0,-1.140625 -0.890625,-1.9375 -2.109375,-1.9375 -1.125,0 -1.859375,0.921875 -1.859375,1.8125 0,0.546875 0.5,0.546875 0.53125,0.546875 0.171875,0 0.515625,-0.109375 0.515625,-0.53125 0,-0.25 -0.1875,-0.515625 -0.53125,-0.515625 -0.078125,0 -0.09375,0 -0.125,0.015625 0.21875,-0.65625 0.765625,-1.015625 1.34375,-1.015625 0.90625,0 1.328125,0.8125 1.328125,1.625 C 3.5625,-3.90625 3.078125,-3.125 2.515625,-2.5 l -1.90625,2.125 C 0.5,-0.265625 0.5,-0.234375 0.5,0 l 3.703125,0 0.265625,-1.734375 -0.234375,0 C 4.171875,-1.4375 4.109375,-1 4,-0.84375 3.9375,-0.765625 3.28125,-0.765625 3.0625,-0.765625 z"
               id="path7895" />
          </symbol>
          <symbol
             style="overflow:visible"
             overflow="visible"
             id="textext-0ec877f8-2">
            <path
               inkscape:connector-curvature="0"
               style="stroke:none"
               d=""
               id="path7898" />
          </symbol>
          <symbol
             style="overflow:visible"
             overflow="visible"
             id="textext-0ec877f8-3">
            <path
               inkscape:connector-curvature="0"
               style="stroke:none"
               d="m 2.328125,-4.4375 c 0,-0.1875 0,-0.1875 -0.203125,-0.1875 -0.453125,0.4375 -1.078125,0.4375 -1.359375,0.4375 l 0,0.25 c 0.15625,0 0.625,0 1,-0.1875 l 0,3.546875 c 0,0.234375 0,0.328125 -0.6875,0.328125 l -0.265625,0 0,0.25 c 0.125,0 0.984375,-0.03125 1.234375,-0.03125 0.21875,0 1.09375,0.03125 1.25,0.03125 l 0,-0.25 -0.265625,0 c -0.703125,0 -0.703125,-0.09375 -0.703125,-0.328125 z"
               id="path7901" />
          </symbol>
          <symbol
             style="overflow:visible"
             overflow="visible"
             id="textext-0ec877f8-4">
            <path
               inkscape:connector-curvature="0"
               style="stroke:none"
               d="m 1.078125,-3.890625 c 0.359375,0.09375 0.5625,0.09375 0.671875,0.09375 0.921875,0 1.46875,-0.625 1.46875,-0.734375 0,-0.078125 -0.046875,-0.09375 -0.078125,-0.09375 -0.015625,0 -0.03125,0 -0.0625,0.015625 -0.171875,0.0625 -0.53125,0.203125 -1.046875,0.203125 -0.203125,0 -0.5625,-0.015625 -1.015625,-0.1875 C 0.9375,-4.625 0.921875,-4.625 0.921875,-4.625 c -0.09375,0 -0.09375,0.078125 -0.09375,0.1875 l 0,2.046875 c 0,0.125 0,0.203125 0.109375,0.203125 0.0625,0 0.078125,0 0.140625,-0.09375 0.296875,-0.375 0.734375,-0.4375 0.96875,-0.4375 0.421875,0 0.609375,0.328125 0.640625,0.390625 0.125,0.234375 0.171875,0.5 0.171875,0.90625 0,0.203125 0,0.609375 -0.21875,0.921875 -0.171875,0.25 -0.46875,0.421875 -0.8125,0.421875 -0.453125,0 -0.921875,-0.25 -1.09375,-0.71875 0.265625,0.015625 0.40625,-0.15625 0.40625,-0.34375 0,-0.296875 -0.265625,-0.34375 -0.359375,-0.34375 0,0 -0.34375,0 -0.34375,0.375 0,0.625 0.578125,1.25 1.40625,1.25 0.890625,0 1.671875,-0.65625 1.671875,-1.546875 0,-0.78125 -0.59375,-1.5 -1.453125,-1.5 -0.3125,0 -0.671875,0.0625 -0.984375,0.328125 z"
               id="path7904" />
          </symbol>
        </g>
      </defs>
    </g>
    <g
       transform="translate(78.91445,257.834)"
       ns0:text="$0$"
       ns0:preamble=""
       id="g8497">
      <defs
         id="defs8499">
        <g
           id="g8501">
          <symbol
             style="overflow:visible"
             overflow="visible"
             id="textext-a5f92ac1-0">
            <path
               inkscape:connector-curvature="0"
               style="stroke:none"
               d=""
               id="path8504" />
          </symbol>
          <symbol
             style="overflow:visible"
             overflow="visible"
             id="textext-a5f92ac1-1">
            <path
               inkscape:connector-curvature="0"
               style="stroke:none"
               d="m 4.578125,-3.1875 c 0,-0.796875 -0.046875,-1.59375 -0.390625,-2.328125 -0.453125,-0.96875 -1.28125,-1.125 -1.6875,-1.125 -0.609375,0 -1.328125,0.265625 -1.75,1.1875 -0.3125,0.6875 -0.359375,1.46875 -0.359375,2.265625 0,0.75 0.03125,1.640625 0.453125,2.40625 0.421875,0.796875 1.15625,1 1.640625,1 0.53125,0 1.296875,-0.203125 1.734375,-1.15625 0.3125,-0.6875 0.359375,-1.46875 0.359375,-2.25 z M 2.484375,0 C 2.09375,0 1.5,-0.25 1.328125,-1.203125 1.21875,-1.796875 1.21875,-2.71875 1.21875,-3.3125 c 0,-0.640625 0,-1.296875 0.078125,-1.828125 0.1875,-1.1875 0.9375,-1.28125 1.1875,-1.28125 0.328125,0 0.984375,0.1875 1.171875,1.171875 0.109375,0.5625 0.109375,1.3125 0.109375,1.9375 0,0.75 0,1.421875 -0.109375,2.0625 C 3.5,-0.296875 2.9375,0 2.484375,0 z"
               id="path8507" />
          </symbol>
        </g>
      </defs>
      <g
         id="textext-a5f92ac1-2">
        <g
           style="fill:#000000;fill-opacity:1"
           id="g8510">
          <use
             height="1052.3622"
             width="744.09448"
             xlink:href="#textext-a5f92ac1-1"
             x="223.43201"
             y="134.765"
             id="use8512" />
        </g>
      </g>
    </g>
    <g
       transform="translate(78.138889,212.7535)"
       ns0:text="$\\pi$"
       ns0:preamble=""
       id="g10143">
      <defs
         id="defs10145">
        <g
           id="g10147">
          <symbol
             style="overflow:visible"
             overflow="visible"
             id="textext-f06411ba-0">
            <path
               inkscape:connector-curvature="0"
               style="stroke:none"
               d=""
               id="path10150" />
          </symbol>
          <symbol
             style="overflow:visible"
             overflow="visible"
             id="textext-f06411ba-1">
            <path
               inkscape:connector-curvature="0"
               style="stroke:none"
               d="m 2.640625,-3.71875 1.125,0 C 3.4375,-2.25 3.34375,-1.8125 3.34375,-1.140625 c 0,0.140625 0,0.40625 0.078125,0.75 0.109375,0.4375 0.21875,0.5 0.359375,0.5 0.203125,0 0.421875,-0.171875 0.421875,-0.375 0,-0.0625 0,-0.078125 -0.0625,-0.21875 -0.296875,-0.71875 -0.296875,-1.375 -0.296875,-1.65625 0,-0.515625 0.078125,-1.0625 0.1875,-1.578125 l 1.125,0 c 0.140625,0 0.5,0 0.5,-0.34375 0,-0.234375 -0.21875,-0.234375 -0.40625,-0.234375 l -3.34375,0 c -0.21875,0 -0.59375,0 -1.03125,0.46875 -0.34375,0.390625 -0.609375,0.84375 -0.609375,0.890625 0,0.015625 0,0.109375 0.125,0.109375 0.078125,0 0.09375,-0.046875 0.15625,-0.125 C 1.03125,-3.71875 1.609375,-3.71875 1.8125,-3.71875 l 0.5625,0 C 2.0625,-2.515625 1.53125,-1.3125 1.109375,-0.40625 1.03125,-0.25 1.03125,-0.234375 1.03125,-0.15625 c 0,0.1875 0.15625,0.265625 0.28125,0.265625 0.296875,0 0.375,-0.28125 0.5,-0.640625 C 1.953125,-1 1.953125,-1.015625 2.078125,-1.515625 z"
               id="path10153" />
          </symbol>
        </g>
      </defs>
      <g
         id="textext-f06411ba-2">
        <g
           style="fill:#000000;fill-opacity:1"
           id="g10156">
          <use
             height="1052.3622"
             width="744.09448"
             xlink:href="#textext-f06411ba-1"
             x="223.43201"
             y="134.765"
             id="use10158" />
        </g>
      </g>
    </g>
    <g
       id="g10593"
       transform="translate(70.950528,301.08693)"
       ns0:preamble=""
       ns0:text="$-\\pi$">
      <defs
         id="defs10595">
        <g
           id="g10597">
          <symbol
             id="textext-0f4f23fa-0"
             overflow="visible"
             style="overflow:visible">
            <path
               id="path10600"
               d=""
               style="stroke:none"
               inkscape:connector-curvature="0" />
          </symbol>
          <symbol
             id="textext-0f4f23fa-1"
             overflow="visible"
             style="overflow:visible">
            <path
               id="path10603"
               d="m 6.5625,-2.296875 c 0.171875,0 0.359375,0 0.359375,-0.203125 0,-0.1875 -0.1875,-0.1875 -0.359375,-0.1875 l -5.390625,0 c -0.171875,0 -0.34375,0 -0.34375,0.1875 0,0.203125 0.171875,0.203125 0.34375,0.203125 z"
               style="stroke:none"
               inkscape:connector-curvature="0" />
          </symbol>
          <symbol
             id="textext-0f4f23fa-2"
             overflow="visible"
             style="overflow:visible">
            <path
               id="path10606"
               d=""
               style="stroke:none"
               inkscape:connector-curvature="0" />
          </symbol>
          <symbol
             id="textext-0f4f23fa-3"
             overflow="visible"
             style="overflow:visible">
            <path
               id="path10609"
               d="m 2.640625,-3.71875 1.125,0 C 3.4375,-2.25 3.34375,-1.8125 3.34375,-1.140625 c 0,0.140625 0,0.40625 0.078125,0.75 0.109375,0.4375 0.21875,0.5 0.359375,0.5 0.203125,0 0.421875,-0.171875 0.421875,-0.375 0,-0.0625 0,-0.078125 -0.0625,-0.21875 -0.296875,-0.71875 -0.296875,-1.375 -0.296875,-1.65625 0,-0.515625 0.078125,-1.0625 0.1875,-1.578125 l 1.125,0 c 0.140625,0 0.5,0 0.5,-0.34375 0,-0.234375 -0.21875,-0.234375 -0.40625,-0.234375 l -3.34375,0 c -0.21875,0 -0.59375,0 -1.03125,0.46875 -0.34375,0.390625 -0.609375,0.84375 -0.609375,0.890625 0,0.015625 0,0.109375 0.125,0.109375 0.078125,0 0.09375,-0.046875 0.15625,-0.125 C 1.03125,-3.71875 1.609375,-3.71875 1.8125,-3.71875 l 0.5625,0 C 2.0625,-2.515625 1.53125,-1.3125 1.109375,-0.40625 1.03125,-0.25 1.03125,-0.234375 1.03125,-0.15625 c 0,0.1875 0.15625,0.265625 0.28125,0.265625 0.296875,0 0.375,-0.28125 0.5,-0.640625 C 1.953125,-1 1.953125,-1.015625 2.078125,-1.515625 z"
               style="stroke:none"
               inkscape:connector-curvature="0" />
          </symbol>
        </g>
      </defs>
      <g
         id="textext-0f4f23fa-4">
        <g
           id="g10612"
           style="fill:#000000;fill-opacity:1">
          <use
             id="use10614"
             y="134.765"
             x="223.43201"
             xlink:href="#textext-0f4f23fa-1"
             width="744.09448"
             height="1052.3622" />
        </g>
        <g
           id="g10616"
           style="fill:#000000;fill-opacity:1">
          <use
             id="use10618"
             y="134.765"
             x="231.181"
             xlink:href="#textext-0f4f23fa-3"
             width="744.09448"
             height="1052.3622" />
        </g>
      </g>
    </g>
    <g
       ns0:text="\\centering\n\nScale $\\pi \\equiv 2^{15}$. Then the\\\\\ndata type wraps the phase\\\\\naround the unit circle"
       ns0:preamble=""
       transform="translate(-7.2295155,136.95361)"
       id="g15820">
      <defs
         id="defs15822">
        <g
           id="g15824">
          <symbol
             style="overflow:visible"
             overflow="visible"
             id="textext-db6f3f24-0">
            <path
               inkscape:connector-curvature="0"
               style="stroke:none"
               d=""
               id="path15827" />
          </symbol>
          <symbol
             style="overflow:visible"
             overflow="visible"
             id="textext-db6f3f24-1">
            <path
               inkscape:connector-curvature="0"
               style="stroke:none"
               d="m 3.484375,-3.875 -1.28125,-0.296875 c -0.625,-0.15625 -1,-0.6875 -1,-1.265625 0,-0.703125 0.53125,-1.3125 1.3125,-1.3125 1.65625,0 1.875,1.640625 1.9375,2.078125 0.015625,0.0625 0.015625,0.125 0.125,0.125 0.125,0 0.125,-0.046875 0.125,-0.234375 l 0,-2 c 0,-0.171875 0,-0.25 -0.109375,-0.25 -0.0625,0 -0.078125,0.015625 -0.140625,0.140625 l -0.359375,0.5625 C 3.796875,-6.625 3.390625,-7.03125 2.5,-7.03125 c -1.109375,0 -1.9375,0.875 -1.9375,1.9375 0,0.828125 0.53125,1.5625 1.296875,1.828125 0.109375,0.03125 0.625,0.15625 1.328125,0.328125 0.265625,0.0625 0.5625,0.140625 0.84375,0.5 0.203125,0.265625 0.3125,0.59375 0.3125,0.921875 0,0.703125 -0.5,1.421875 -1.34375,1.421875 -0.28125,0 -1.046875,-0.046875 -1.578125,-0.53125 C 0.84375,-1.171875 0.8125,-1.796875 0.8125,-2.15625 0.796875,-2.265625 0.71875,-2.265625 0.6875,-2.265625 c -0.125,0 -0.125,0.078125 -0.125,0.25 l 0,2 c 0,0.171875 0,0.234375 0.109375,0.234375 0.0625,0 0.078125,-0.015625 0.140625,-0.125 0,-0.015625 0.03125,-0.046875 0.359375,-0.578125 0.3125,0.34375 0.953125,0.703125 1.84375,0.703125 1.15625,0 1.953125,-0.96875 1.953125,-2.078125 0,-0.984375 -0.65625,-1.8125 -1.484375,-2.015625 z"
               id="path15830" />
          </symbol>
          <symbol
             style="overflow:visible"
             overflow="visible"
             id="textext-db6f3f24-2">
            <path
               inkscape:connector-curvature="0"
               style="stroke:none"
               d="m 1.171875,-2.171875 c 0,-1.625 0.8125,-2.046875 1.34375,-2.046875 0.09375,0 0.71875,0.015625 1.0625,0.375 -0.40625,0.03125 -0.46875,0.328125 -0.46875,0.453125 0,0.265625 0.1875,0.453125 0.453125,0.453125 0.265625,0 0.46875,-0.15625 0.46875,-0.46875 0,-0.671875 -0.765625,-1.0625 -1.53125,-1.0625 -1.25,0 -2.15625,1.078125 -2.15625,2.3125 0,1.28125 0.984375,2.265625 2.140625,2.265625 1.328125,0 1.65625,-1.203125 1.65625,-1.296875 0,-0.09375 -0.109375,-0.09375 -0.140625,-0.09375 -0.078125,0 -0.109375,0.03125 -0.125,0.09375 -0.28125,0.921875 -0.9375,1.046875 -1.296875,1.046875 -0.53125,0 -1.40625,-0.421875 -1.40625,-2.03125 z"
               id="path15833" />
          </symbol>
          <symbol
             style="overflow:visible"
             overflow="visible"
             id="textext-db6f3f24-3">
            <path
               inkscape:connector-curvature="0"
               style="stroke:none"
               d="m 3.3125,-0.75 c 0.046875,0.390625 0.3125,0.8125 0.78125,0.8125 0.21875,0 0.828125,-0.140625 0.828125,-0.953125 l 0,-0.5625 -0.25,0 0,0.5625 c 0,0.578125 -0.25,0.640625 -0.359375,0.640625 -0.328125,0 -0.375,-0.453125 -0.375,-0.5 l 0,-1.984375 c 0,-0.421875 0,-0.8125 -0.359375,-1.1875 C 3.1875,-4.3125 2.6875,-4.46875 2.21875,-4.46875 c -0.828125,0 -1.515625,0.46875 -1.515625,1.125 0,0.296875 0.203125,0.46875 0.46875,0.46875 0.28125,0 0.453125,-0.203125 0.453125,-0.453125 0,-0.125 -0.046875,-0.453125 -0.515625,-0.453125 C 1.390625,-4.140625 1.875,-4.25 2.1875,-4.25 c 0.5,0 1.0625,0.390625 1.0625,1.28125 l 0,0.359375 c -0.515625,0.03125 -1.203125,0.0625 -1.828125,0.359375 -0.75,0.34375 -1,0.859375 -1,1.296875 0,0.8125 0.96875,1.0625 1.59375,1.0625 0.65625,0 1.109375,-0.40625 1.296875,-0.859375 z M 3.25,-2.390625 l 0,1 c 0,0.9375 -0.71875,1.28125 -1.171875,1.28125 -0.484375,0 -0.890625,-0.34375 -0.890625,-0.84375 0,-0.546875 0.421875,-1.375 2.0625,-1.4375 z"
               id="path15836" />
          </symbol>
          <symbol
             style="overflow:visible"
             overflow="visible"
             id="textext-db6f3f24-4">
            <path
               inkscape:connector-curvature="0"
               style="stroke:none"
               d="m 1.765625,-6.921875 -1.4375,0.109375 0,0.3125 c 0.703125,0 0.78125,0.0625 0.78125,0.5625 l 0,5.1875 c 0,0.4375 -0.109375,0.4375 -0.78125,0.4375 l 0,0.3125 C 0.65625,-0.015625 1.1875,-0.03125 1.4375,-0.03125 c 0.25,0 0.734375,0.015625 1.109375,0.03125 l 0,-0.3125 c -0.671875,0 -0.78125,0 -0.78125,-0.4375 z"
               id="path15839" />
          </symbol>
          <symbol
             style="overflow:visible"
             overflow="visible"
             id="textext-db6f3f24-5">
            <path
               inkscape:connector-curvature="0"
               style="stroke:none"
               d="M 1.109375,-2.515625 C 1.171875,-4 2.015625,-4.25 2.359375,-4.25 c 1.015625,0 1.125,1.34375 1.125,1.734375 z m 0,0.21875 2.78125,0 c 0.21875,0 0.25,0 0.25,-0.21875 0,-0.984375 -0.546875,-1.953125 -1.78125,-1.953125 -1.15625,0 -2.078125,1.03125 -2.078125,2.28125 0,1.328125 1.046875,2.296875 2.1875,2.296875 C 3.6875,0.109375 4.140625,-1 4.140625,-1.1875 4.140625,-1.28125 4.0625,-1.3125 4,-1.3125 c -0.078125,0 -0.109375,0.0625 -0.125,0.140625 -0.34375,1.03125 -1.25,1.03125 -1.34375,1.03125 -0.5,0 -0.890625,-0.296875 -1.125,-0.671875 -0.296875,-0.46875 -0.296875,-1.125 -0.296875,-1.484375 z"
               id="path15842" />
          </symbol>
          <symbol
             style="overflow:visible"
             overflow="visible"
             id="textext-db6f3f24-6">
            <path
               inkscape:connector-curvature="0"
               style="stroke:none"
               d="m 1.265625,-0.765625 1.0625,-1.03125 c 1.546875,-1.375 2.140625,-1.90625 2.140625,-2.90625 0,-1.140625 -0.890625,-1.9375 -2.109375,-1.9375 -1.125,0 -1.859375,0.921875 -1.859375,1.8125 0,0.546875 0.5,0.546875 0.53125,0.546875 0.171875,0 0.515625,-0.109375 0.515625,-0.53125 0,-0.25 -0.1875,-0.515625 -0.53125,-0.515625 -0.078125,0 -0.09375,0 -0.125,0.015625 0.21875,-0.65625 0.765625,-1.015625 1.34375,-1.015625 0.90625,0 1.328125,0.8125 1.328125,1.625 C 3.5625,-3.90625 3.078125,-3.125 2.515625,-2.5 l -1.90625,2.125 C 0.5,-0.265625 0.5,-0.234375 0.5,0 l 3.703125,0 0.265625,-1.734375 -0.234375,0 C 4.171875,-1.4375 4.109375,-1 4,-0.84375 3.9375,-0.765625 3.28125,-0.765625 3.0625,-0.765625 z"
               id="path15845" />
          </symbol>
          <symbol
             style="overflow:visible"
             overflow="visible"
             id="textext-db6f3f24-7">
            <path
               inkscape:connector-curvature="0"
               style="stroke:none"
               d="m 1.90625,-0.53125 c 0,-0.28125 -0.234375,-0.53125 -0.515625,-0.53125 -0.296875,0 -0.53125,0.25 -0.53125,0.53125 C 0.859375,-0.234375 1.09375,0 1.390625,0 1.671875,0 1.90625,-0.234375 1.90625,-0.53125 z"
               id="path15848" />
          </symbol>
          <symbol
             style="overflow:visible"
             overflow="visible"
             id="textext-db6f3f24-8">
            <path
               inkscape:connector-curvature="0"
               style="stroke:none"
               d="m 6.640625,-6.75 -6.09375,0 -0.1875,2.25 0.25,0 C 0.75,-6.109375 0.890625,-6.4375 2.40625,-6.4375 c 0.171875,0 0.4375,0 0.53125,0.015625 0.21875,0.046875 0.21875,0.15625 0.21875,0.375 l 0,5.265625 c 0,0.328125 0,0.46875 -1.046875,0.46875 l -0.40625,0 0,0.3125 C 2.109375,-0.03125 3.125,-0.03125 3.59375,-0.03125 c 0.453125,0 1.484375,0 1.890625,0.03125 l 0,-0.3125 -0.40625,0 c -1.046875,0 -1.046875,-0.140625 -1.046875,-0.46875 l 0,-5.265625 c 0,-0.1875 0,-0.328125 0.1875,-0.375 0.109375,-0.015625 0.375,-0.015625 0.5625,-0.015625 1.515625,0 1.65625,0.328125 1.796875,1.9375 l 0.25,0 z"
               id="path15851" />
          </symbol>
          <symbol
             style="overflow:visible"
             overflow="visible"
             id="textext-db6f3f24-9">
            <path
               inkscape:connector-curvature="0"
               style="stroke:none"
               d="m 1.09375,-0.75 c 0,0.4375 -0.109375,0.4375 -0.78125,0.4375 l 0,0.3125 c 0.359375,-0.015625 0.859375,-0.03125 1.140625,-0.03125 0.25,0 0.765625,0.015625 1.109375,0.03125 l 0,-0.3125 c -0.671875,0 -0.78125,0 -0.78125,-0.4375 l 0,-1.84375 C 1.78125,-3.625 2.5,-4.1875 3.125,-4.1875 c 0.640625,0 0.75,0.53125 0.75,1.109375 l 0,2.328125 c 0,0.4375 -0.109375,0.4375 -0.78125,0.4375 l 0,0.3125 c 0.34375,-0.015625 0.859375,-0.03125 1.125,-0.03125 0.25,0 0.78125,0.015625 1.109375,0.03125 l 0,-0.3125 c -0.515625,0 -0.765625,0 -0.765625,-0.296875 l 0,-1.90625 c 0,-0.859375 0,-1.15625 -0.3125,-1.515625 -0.140625,-0.171875 -0.46875,-0.375 -1.046875,-0.375 -0.84375,0 -1.28125,0.59375 -1.453125,0.984375 l 0,-3.5 -1.4375,0.109375 0,0.3125 c 0.703125,0 0.78125,0.0625 0.78125,0.5625 z"
               id="path15854" />
          </symbol>
          <symbol
             style="overflow:visible"
             overflow="visible"
             id="textext-db6f3f24-10">
            <path
               inkscape:connector-curvature="0"
               style="stroke:none"
               d="m 1.09375,-3.421875 0,2.671875 c 0,0.4375 -0.109375,0.4375 -0.78125,0.4375 l 0,0.3125 c 0.359375,-0.015625 0.859375,-0.03125 1.140625,-0.03125 0.25,0 0.765625,0.015625 1.109375,0.03125 l 0,-0.3125 c -0.671875,0 -0.78125,0 -0.78125,-0.4375 l 0,-1.84375 C 1.78125,-3.625 2.5,-4.1875 3.125,-4.1875 c 0.640625,0 0.75,0.53125 0.75,1.109375 l 0,2.328125 c 0,0.4375 -0.109375,0.4375 -0.78125,0.4375 l 0,0.3125 c 0.34375,-0.015625 0.859375,-0.03125 1.125,-0.03125 0.25,0 0.78125,0.015625 1.109375,0.03125 l 0,-0.3125 c -0.515625,0 -0.765625,0 -0.765625,-0.296875 l 0,-1.90625 c 0,-0.859375 0,-1.15625 -0.3125,-1.515625 -0.140625,-0.171875 -0.46875,-0.375 -1.046875,-0.375 C 2.46875,-4.40625 2,-3.984375 1.71875,-3.359375 l 0,-1.046875 -1.40625,0.109375 0,0.3125 c 0.703125,0 0.78125,0.0625 0.78125,0.5625 z"
               id="path15857" />
          </symbol>
          <symbol
             style="overflow:visible"
             overflow="visible"
             id="textext-db6f3f24-11">
            <path
               inkscape:connector-curvature="0"
               style="stroke:none"
               d="m 1.71875,-3.984375 1.4375,0 0,-0.3125 -1.4375,0 0,-1.828125 -0.25,0 c 0,0.8125 -0.296875,1.875 -1.28125,1.921875 l 0,0.21875 0.84375,0 0,2.75 c 0,1.21875 0.9375,1.34375 1.296875,1.34375 0.703125,0 0.984375,-0.703125 0.984375,-1.34375 l 0,-0.5625 -0.25,0 0,0.546875 c 0,0.734375 -0.296875,1.109375 -0.671875,1.109375 -0.671875,0 -0.671875,-0.90625 -0.671875,-1.078125 z"
               id="path15860" />
          </symbol>
          <symbol
             style="overflow:visible"
             overflow="visible"
             id="textext-db6f3f24-12">
            <path
               inkscape:connector-curvature="0"
               style="stroke:none"
               d="m 3.78125,-0.546875 0,0.65625 L 5.25,0 l 0,-0.3125 c -0.6875,0 -0.78125,-0.0625 -0.78125,-0.5625 l 0,-6.046875 -1.421875,0.109375 0,0.3125 c 0.6875,0 0.765625,0.0625 0.765625,0.5625 l 0,2.15625 c -0.28125,-0.359375 -0.71875,-0.625 -1.25,-0.625 -1.171875,0 -2.21875,0.984375 -2.21875,2.265625 0,1.265625 0.96875,2.25 2.109375,2.25 0.640625,0 1.078125,-0.34375 1.328125,-0.65625 z m 0,-2.671875 0,2.046875 c 0,0.171875 0,0.1875 -0.109375,0.359375 C 3.375,-0.328125 2.9375,-0.109375 2.5,-0.109375 2.046875,-0.109375 1.6875,-0.375 1.453125,-0.75 1.203125,-1.15625 1.171875,-1.71875 1.171875,-2.140625 1.171875,-2.5 1.1875,-3.09375 1.46875,-3.546875 1.6875,-3.859375 2.0625,-4.1875 2.609375,-4.1875 c 0.34375,0 0.765625,0.15625 1.0625,0.59375 0.109375,0.171875 0.109375,0.1875 0.109375,0.375 z"
               id="path15863" />
          </symbol>
          <symbol
             style="overflow:visible"
             overflow="visible"
             id="textext-db6f3f24-13">
            <path
               inkscape:connector-curvature="0"
               style="stroke:none"
               d="m 4.140625,-3.34375 c 0.25,-0.640625 0.765625,-0.640625 0.921875,-0.640625 l 0,-0.3125 c -0.234375,0.015625 -0.515625,0.03125 -0.75,0.03125 -0.171875,0 -0.640625,-0.015625 -0.859375,-0.03125 l 0,0.3125 c 0.3125,0 0.46875,0.171875 0.46875,0.421875 0,0.109375 -0.015625,0.125 -0.0625,0.25 L 2.84375,-0.875 1.75,-3.546875 C 1.703125,-3.65625 1.6875,-3.6875 1.6875,-3.734375 c 0,-0.25 0.359375,-0.25 0.5625,-0.25 l 0,-0.3125 c -0.265625,0.015625 -0.921875,0.03125 -1.09375,0.03125 -0.265625,0 -0.671875,-0.015625 -0.96875,-0.03125 l 0,0.3125 c 0.484375,0 0.671875,0 0.8125,0.34375 L 2.5,0 C 2.4375,0.125 2.296875,0.453125 2.25,0.59375 2.03125,1.140625 1.75,1.828125 1.109375,1.828125 c -0.046875,0 -0.28125,0 -0.46875,-0.1875 0.3125,-0.03125 0.390625,-0.25 0.390625,-0.421875 0,-0.25 -0.1875,-0.40625 -0.421875,-0.40625 -0.203125,0 -0.421875,0.125 -0.421875,0.421875 0,0.453125 0.421875,0.8125 0.921875,0.8125 0.625,0 1.03125,-0.578125 1.265625,-1.140625 z"
               id="path15866" />
          </symbol>
          <symbol
             style="overflow:visible"
             overflow="visible"
             id="textext-db6f3f24-14">
            <path
               inkscape:connector-curvature="0"
               style="stroke:none"
               d="m 1.71875,-3.75 0,-0.65625 -1.4375,0.109375 0,0.3125 c 0.703125,0 0.78125,0.0625 0.78125,0.5 l 0,4.65625 C 1.0625,1.625 0.953125,1.625 0.28125,1.625 l 0,0.3125 C 0.625,1.921875 1.140625,1.90625 1.390625,1.90625 c 0.28125,0 0.78125,0.015625 1.125,0.03125 l 0,-0.3125 C 1.859375,1.625 1.75,1.625 1.75,1.171875 l 0,-1.765625 c 0.046875,0.171875 0.46875,0.703125 1.21875,0.703125 1.1875,0 2.21875,-0.984375 2.21875,-2.265625 0,-1.265625 -0.953125,-2.25 -2.078125,-2.25 -0.78125,0 -1.203125,0.4375 -1.390625,0.65625 z m 0.03125,2.609375 0,-2.21875 C 2.03125,-3.875 2.515625,-4.15625 3.03125,-4.15625 c 0.734375,0 1.328125,0.875 1.328125,2 0,1.203125 -0.6875,2.046875 -1.421875,2.046875 -0.40625,0 -0.78125,-0.203125 -1.046875,-0.609375 C 1.75,-0.921875 1.75,-0.9375 1.75,-1.140625 z"
               id="path15869" />
          </symbol>
          <symbol
             style="overflow:visible"
             overflow="visible"
             id="textext-db6f3f24-15">
            <path
               inkscape:connector-curvature="0"
               style="stroke:none"
               d="m 6.171875,-3.34375 c 0.171875,-0.5 0.484375,-0.640625 0.84375,-0.640625 l 0,-0.3125 C 6.78125,-4.28125 6.5,-4.265625 6.28125,-4.265625 c -0.296875,0 -0.734375,-0.015625 -0.921875,-0.03125 l 0,0.3125 c 0.359375,0 0.578125,0.1875 0.578125,0.46875 0,0.0625 0,0.09375 -0.0625,0.21875 L 4.96875,-0.75 3.984375,-3.53125 C 3.953125,-3.65625 3.9375,-3.671875 3.9375,-3.71875 c 0,-0.265625 0.390625,-0.265625 0.59375,-0.265625 l 0,-0.3125 c -0.296875,0.015625 -0.796875,0.03125 -1.046875,0.03125 -0.296875,0 -0.578125,-0.015625 -0.875,-0.03125 l 0,0.3125 c 0.359375,0 0.515625,0.015625 0.625,0.140625 0.046875,0.0625 0.15625,0.359375 0.21875,0.546875 L 2.609375,-0.875 1.65625,-3.53125 C 1.609375,-3.65625 1.609375,-3.671875 1.609375,-3.71875 1.609375,-3.984375 2,-3.984375 2.1875,-3.984375 l 0,-0.3125 c -0.296875,0.015625 -0.859375,0.03125 -1.078125,0.03125 -0.046875,0 -0.578125,-0.015625 -0.9375,-0.03125 l 0,0.3125 c 0.5,0 0.625,0.03125 0.75,0.34375 l 1.25,3.53125 C 2.21875,0.03125 2.25,0.109375 2.375,0.109375 c 0.140625,0 0.15625,-0.0625 0.203125,-0.203125 l 1.015625,-2.8125 1.015625,2.828125 c 0.03125,0.109375 0.0625,0.1875 0.203125,0.1875 0.125,0 0.15625,-0.09375 0.1875,-0.1875 z"
               id="path15872" />
          </symbol>
          <symbol
             style="overflow:visible"
             overflow="visible"
             id="textext-db6f3f24-16">
            <path
               inkscape:connector-curvature="0"
               style="stroke:none"
               d="m 1.671875,-3.3125 0,-1.09375 -1.390625,0.109375 0,0.3125 c 0.703125,0 0.78125,0.0625 0.78125,0.5625 l 0,2.671875 c 0,0.4375 -0.109375,0.4375 -0.78125,0.4375 l 0,0.3125 c 0.390625,-0.015625 0.859375,-0.03125 1.140625,-0.03125 0.390625,0 0.859375,0 1.265625,0.03125 l 0,-0.3125 -0.21875,0 c -0.734375,0 -0.75,-0.109375 -0.75,-0.46875 l 0,-1.53125 c 0,-0.984375 0.421875,-1.875 1.171875,-1.875 0.0625,0 0.09375,0 0.109375,0.015625 -0.03125,0 -0.234375,0.125 -0.234375,0.390625 0,0.265625 0.21875,0.421875 0.4375,0.421875 0.171875,0 0.421875,-0.125 0.421875,-0.4375 0,-0.3125 -0.3125,-0.609375 -0.734375,-0.609375 -0.734375,0 -1.09375,0.671875 -1.21875,1.09375 z"
               id="path15875" />
          </symbol>
          <symbol
             style="overflow:visible"
             overflow="visible"
             id="textext-db6f3f24-17">
            <path
               inkscape:connector-curvature="0"
               style="stroke:none"
               d="m 2.078125,-1.9375 c 0.21875,0.046875 1.03125,0.203125 1.03125,0.921875 0,0.5 -0.34375,0.90625 -1.125,0.90625 -0.84375,0 -1.203125,-0.5625 -1.390625,-1.421875 C 0.5625,-1.65625 0.5625,-1.6875 0.453125,-1.6875 c -0.125,0 -0.125,0.0625 -0.125,0.234375 l 0,1.328125 c 0,0.171875 0,0.234375 0.109375,0.234375 0.046875,0 0.0625,-0.015625 0.25,-0.203125 0.015625,-0.015625 0.015625,-0.03125 0.203125,-0.21875 0.4375,0.40625 0.890625,0.421875 1.09375,0.421875 1.140625,0 1.609375,-0.671875 1.609375,-1.390625 0,-0.515625 -0.296875,-0.828125 -0.421875,-0.9375 C 2.84375,-2.546875 2.453125,-2.625 2.03125,-2.703125 1.46875,-2.8125 0.8125,-2.9375 0.8125,-3.515625 c 0,-0.359375 0.25,-0.765625 1.109375,-0.765625 1.09375,0 1.15625,0.90625 1.171875,1.203125 0,0.09375 0.09375,0.09375 0.109375,0.09375 0.140625,0 0.140625,-0.046875 0.140625,-0.234375 l 0,-1.015625 c 0,-0.15625 0,-0.234375 -0.109375,-0.234375 -0.046875,0 -0.078125,0 -0.203125,0.125 -0.03125,0.03125 -0.125,0.125 -0.171875,0.15625 -0.375,-0.28125 -0.78125,-0.28125 -0.9375,-0.28125 -1.21875,0 -1.59375,0.671875 -1.59375,1.234375 0,0.34375 0.15625,0.625 0.421875,0.84375 0.328125,0.25 0.609375,0.3125 1.328125,0.453125 z"
               id="path15878" />
          </symbol>
          <symbol
             style="overflow:visible"
             overflow="visible"
             id="textext-db6f3f24-18">
            <path
               inkscape:connector-curvature="0"
               style="stroke:none"
               d="M 4.6875,-2.140625 C 4.6875,-3.40625 3.703125,-4.46875 2.5,-4.46875 c -1.25,0 -2.21875,1.09375 -2.21875,2.328125 0,1.296875 1.03125,2.25 2.203125,2.25 1.203125,0 2.203125,-0.984375 2.203125,-2.25 z m -2.1875,2 c -0.4375,0 -0.875,-0.203125 -1.140625,-0.671875 -0.25,-0.4375 -0.25,-1.046875 -0.25,-1.40625 0,-0.390625 0,-0.921875 0.234375,-1.359375 C 1.609375,-4.03125 2.078125,-4.25 2.484375,-4.25 c 0.4375,0 0.859375,0.21875 1.125,0.65625 0.265625,0.421875 0.265625,1 0.265625,1.375 0,0.359375 0,0.90625 -0.21875,1.34375 C 3.421875,-0.421875 2.984375,-0.140625 2.5,-0.140625 z"
               id="path15881" />
          </symbol>
          <symbol
             style="overflow:visible"
             overflow="visible"
             id="textext-db6f3f24-19">
            <path
               inkscape:connector-curvature="0"
               style="stroke:none"
               d="m 3.890625,-0.78125 0,0.890625 L 5.328125,0 l 0,-0.3125 C 4.640625,-0.3125 4.5625,-0.375 4.5625,-0.875 l 0,-3.53125 -1.46875,0.109375 0,0.3125 c 0.6875,0 0.78125,0.0625 0.78125,0.5625 l 0,1.765625 c 0,0.875 -0.484375,1.546875 -1.21875,1.546875 -0.828125,0 -0.875,-0.46875 -0.875,-0.984375 l 0,-3.3125 -1.46875,0.109375 0,0.3125 c 0.78125,0 0.78125,0.03125 0.78125,0.90625 l 0,1.5 c 0,0.78125 0,1.6875 1.515625,1.6875 0.5625,0 1,-0.28125 1.28125,-0.890625 z"
               id="path15884" />
          </symbol>
          <symbol
             style="overflow:visible"
             overflow="visible"
             id="textext-db6f3f24-20">
            <path
               inkscape:connector-curvature="0"
               style="stroke:none"
               d="M 1.765625,-4.40625 0.375,-4.296875 l 0,0.3125 c 0.640625,0 0.734375,0.0625 0.734375,0.546875 l 0,2.6875 c 0,0.4375 -0.109375,0.4375 -0.78125,0.4375 l 0,0.3125 C 0.640625,-0.015625 1.1875,-0.03125 1.421875,-0.03125 1.78125,-0.03125 2.125,-0.015625 2.46875,0 l 0,-0.3125 c -0.671875,0 -0.703125,-0.046875 -0.703125,-0.4375 z m 0.03125,-1.734375 c 0,-0.3125 -0.234375,-0.53125 -0.515625,-0.53125 -0.3125,0 -0.53125,0.265625 -0.53125,0.53125 0,0.265625 0.21875,0.53125 0.53125,0.53125 0.28125,0 0.515625,-0.21875 0.515625,-0.53125 z"
               id="path15887" />
          </symbol>
          <symbol
             style="overflow:visible"
             overflow="visible"
             id="textext-db6f3f24-21">
            <path
               inkscape:connector-curvature="0"
               style="stroke:none"
               d=""
               id="path15890" />
          </symbol>
          <symbol
             style="overflow:visible"
             overflow="visible"
             id="textext-db6f3f24-22">
            <path
               inkscape:connector-curvature="0"
               style="stroke:none"
               d="m 2.640625,-3.71875 1.125,0 C 3.4375,-2.25 3.34375,-1.8125 3.34375,-1.140625 c 0,0.140625 0,0.40625 0.078125,0.75 0.109375,0.4375 0.21875,0.5 0.359375,0.5 0.203125,0 0.421875,-0.171875 0.421875,-0.375 0,-0.0625 0,-0.078125 -0.0625,-0.21875 -0.296875,-0.71875 -0.296875,-1.375 -0.296875,-1.65625 0,-0.515625 0.078125,-1.0625 0.1875,-1.578125 l 1.125,0 c 0.140625,0 0.5,0 0.5,-0.34375 0,-0.234375 -0.21875,-0.234375 -0.40625,-0.234375 l -3.34375,0 c -0.21875,0 -0.59375,0 -1.03125,0.46875 -0.34375,0.390625 -0.609375,0.84375 -0.609375,0.890625 0,0.015625 0,0.109375 0.125,0.109375 0.078125,0 0.09375,-0.046875 0.15625,-0.125 C 1.03125,-3.71875 1.609375,-3.71875 1.8125,-3.71875 l 0.5625,0 C 2.0625,-2.515625 1.53125,-1.3125 1.109375,-0.40625 1.03125,-0.25 1.03125,-0.234375 1.03125,-0.15625 c 0,0.1875 0.15625,0.265625 0.28125,0.265625 0.296875,0 0.375,-0.28125 0.5,-0.640625 C 1.953125,-1 1.953125,-1.015625 2.078125,-1.515625 z"
               id="path15893" />
          </symbol>
          <symbol
             style="overflow:visible"
             overflow="visible"
             id="textext-db6f3f24-23">
            <path
               inkscape:connector-curvature="0"
               style="stroke:none"
               d=""
               id="path15896" />
          </symbol>
          <symbol
             style="overflow:visible"
             overflow="visible"
             id="textext-db6f3f24-24">
            <path
               inkscape:connector-curvature="0"
               style="stroke:none"
               d="m 6.84375,-4.234375 c 0.171875,0 0.359375,0 0.359375,-0.1875 C 7.203125,-4.625 7.015625,-4.625 6.84375,-4.625 l -5.953125,0 c -0.15625,0 -0.34375,0 -0.34375,0.203125 0,0.1875 0.203125,0.1875 0.359375,0.1875 z m 0,3.875 c 0.171875,0 0.359375,0 0.359375,-0.203125 0,-0.1875 -0.1875,-0.1875 -0.359375,-0.1875 l -5.9375,0 c -0.15625,0 -0.359375,0 -0.359375,0.1875 0,0.203125 0.1875,0.203125 0.34375,0.203125 z m 0,-1.9375 c 0.171875,0 0.359375,0 0.359375,-0.203125 0,-0.1875 -0.1875,-0.1875 -0.359375,-0.1875 l -5.953125,0 c -0.15625,0 -0.34375,0 -0.34375,0.1875 0,0.203125 0.1875,0.203125 0.34375,0.203125 z"
               id="path15899" />
          </symbol>
          <symbol
             style="overflow:visible"
             overflow="visible"
             id="textext-db6f3f24-25">
            <path
               inkscape:connector-curvature="0"
               style="stroke:none"
               d=""
               id="path15902" />
          </symbol>
          <symbol
             style="overflow:visible"
             overflow="visible"
             id="textext-db6f3f24-26">
            <path
               inkscape:connector-curvature="0"
               style="stroke:none"
               d="m 2.328125,-4.4375 c 0,-0.1875 0,-0.1875 -0.203125,-0.1875 -0.453125,0.4375 -1.078125,0.4375 -1.359375,0.4375 l 0,0.25 c 0.15625,0 0.625,0 1,-0.1875 l 0,3.546875 c 0,0.234375 0,0.328125 -0.6875,0.328125 l -0.265625,0 0,0.25 c 0.125,0 0.984375,-0.03125 1.234375,-0.03125 0.21875,0 1.09375,0.03125 1.25,0.03125 l 0,-0.25 -0.265625,0 c -0.703125,0 -0.703125,-0.09375 -0.703125,-0.328125 z"
               id="path15905" />
          </symbol>
          <symbol
             style="overflow:visible"
             overflow="visible"
             id="textext-db6f3f24-27">
            <path
               inkscape:connector-curvature="0"
               style="stroke:none"
               d="m 1.078125,-3.890625 c 0.359375,0.09375 0.5625,0.09375 0.671875,0.09375 0.921875,0 1.46875,-0.625 1.46875,-0.734375 0,-0.078125 -0.046875,-0.09375 -0.078125,-0.09375 -0.015625,0 -0.03125,0 -0.0625,0.015625 -0.171875,0.0625 -0.53125,0.203125 -1.046875,0.203125 -0.203125,0 -0.5625,-0.015625 -1.015625,-0.1875 C 0.9375,-4.625 0.921875,-4.625 0.921875,-4.625 c -0.09375,0 -0.09375,0.078125 -0.09375,0.1875 l 0,2.046875 c 0,0.125 0,0.203125 0.109375,0.203125 0.0625,0 0.078125,0 0.140625,-0.09375 0.296875,-0.375 0.734375,-0.4375 0.96875,-0.4375 0.421875,0 0.609375,0.328125 0.640625,0.390625 0.125,0.234375 0.171875,0.5 0.171875,0.90625 0,0.203125 0,0.609375 -0.21875,0.921875 -0.171875,0.25 -0.46875,0.421875 -0.8125,0.421875 -0.453125,0 -0.921875,-0.25 -1.09375,-0.71875 0.265625,0.015625 0.40625,-0.15625 0.40625,-0.34375 0,-0.296875 -0.265625,-0.34375 -0.359375,-0.34375 0,0 -0.34375,0 -0.34375,0.375 0,0.625 0.578125,1.25 1.40625,1.25 0.890625,0 1.671875,-0.65625 1.671875,-1.546875 0,-0.78125 -0.59375,-1.5 -1.453125,-1.5 -0.3125,0 -0.671875,0.0625 -0.984375,0.328125 z"
               id="path15908" />
          </symbol>
        </g>
      </defs>
      <g
         id="textext-db6f3f24-28">
        <g
           style="fill:#000000;fill-opacity:1"
           id="g15911">
          <use
             height="1052.3622"
             width="744.09448"
             xlink:href="#textext-db6f3f24-1"
             x="342.664"
             y="134.765"
             id="use15913" />
          <use
             height="1052.3622"
             width="744.09448"
             xlink:href="#textext-db6f3f24-2"
             x="348.19922"
             y="134.765"
             id="use15915" />
          <use
             height="1052.3622"
             width="744.09448"
             xlink:href="#textext-db6f3f24-3"
             x="352.62659"
             y="134.765"
             id="use15917" />
          <use
             height="1052.3622"
             width="744.09448"
             xlink:href="#textext-db6f3f24-4"
             x="357.60791"
             y="134.765"
             id="use15919" />
          <use
             height="1052.3622"
             width="744.09448"
             xlink:href="#textext-db6f3f24-5"
             x="360.37552"
             y="134.765"
             id="use15921" />
        </g>
        <g
           style="fill:#000000;fill-opacity:1"
           id="g15923">
          <use
             height="1052.3622"
             width="744.09448"
             xlink:href="#textext-db6f3f24-22"
             x="368.12399"
             y="134.765"
             id="use15925" />
        </g>
        <g
           style="fill:#000000;fill-opacity:1"
           id="g15927">
          <use
             height="1052.3622"
             width="744.09448"
             xlink:href="#textext-db6f3f24-24"
             x="376.92801"
             y="134.765"
             id="use15929" />
        </g>
        <g
           style="fill:#000000;fill-opacity:1"
           id="g15931">
          <use
             height="1052.3622"
             width="744.09448"
             xlink:href="#textext-db6f3f24-6"
             x="387.444"
             y="134.765"
             id="use15933" />
        </g>
        <g
           style="fill:#000000;fill-opacity:1"
           id="g15935">
          <use
             height="1052.3622"
             width="744.09448"
             xlink:href="#textext-db6f3f24-26"
             x="392.42499"
             y="131.14999"
             id="use15937" />
          <use
             height="1052.3622"
             width="744.09448"
             xlink:href="#textext-db6f3f24-27"
             x="396.39658"
             y="131.14999"
             id="use15939" />
        </g>
        <g
           style="fill:#000000;fill-opacity:1"
           id="g15941">
          <use
             height="1052.3622"
             width="744.09448"
             xlink:href="#textext-db6f3f24-7"
             x="400.866"
             y="134.765"
             id="use15943" />
        </g>
        <g
           style="fill:#000000;fill-opacity:1"
           id="g15945">
          <use
             height="1052.3622"
             width="744.09448"
             xlink:href="#textext-db6f3f24-8"
             x="408.05701"
             y="134.765"
             id="use15947" />
          <use
             height="1052.3622"
             width="744.09448"
             xlink:href="#textext-db6f3f24-9"
             x="415.25198"
             y="134.765"
             id="use15949" />
          <use
             height="1052.3622"
             width="744.09448"
             xlink:href="#textext-db6f3f24-5"
             x="420.7872"
             y="134.765"
             id="use15951" />
          <use
             height="1052.3622"
             width="744.09448"
             xlink:href="#textext-db6f3f24-10"
             x="425.2146"
             y="134.765"
             id="use15953" />
        </g>
        <g
           style="fill:#000000;fill-opacity:1"
           id="g15955">
          <use
             height="1052.3622"
             width="744.09448"
             xlink:href="#textext-db6f3f24-11"
             x="434.07733"
             y="134.765"
             id="use15957" />
          <use
             height="1052.3622"
             width="744.09448"
             xlink:href="#textext-db6f3f24-9"
             x="437.95178"
             y="134.765"
             id="use15959" />
          <use
             height="1052.3622"
             width="744.09448"
             xlink:href="#textext-db6f3f24-5"
             x="443.487"
             y="134.765"
             id="use15961" />
        </g>
        <g
           style="fill:#000000;fill-opacity:1"
           id="g15963">
          <use
             height="1052.3622"
             width="744.09448"
             xlink:href="#textext-db6f3f24-12"
             x="337.51801"
             y="146.72"
             id="use15965" />
          <use
             height="1052.3622"
             width="744.09448"
             xlink:href="#textext-db6f3f24-3"
             x="343.05322"
             y="146.72"
             id="use15967" />
          <use
             height="1052.3622"
             width="744.09448"
             xlink:href="#textext-db6f3f24-11"
             x="348.03452"
             y="146.72"
             id="use15969" />
          <use
             height="1052.3622"
             width="744.09448"
             xlink:href="#textext-db6f3f24-3"
             x="351.90897"
             y="146.72"
             id="use15971" />
        </g>
        <g
           style="fill:#000000;fill-opacity:1"
           id="g15973">
          <use
             height="1052.3622"
             width="744.09448"
             xlink:href="#textext-db6f3f24-11"
             x="360.20782"
             y="146.72"
             id="use15975" />
        </g>
        <g
           style="fill:#000000;fill-opacity:1"
           id="g15977">
          <use
             height="1052.3622"
             width="744.09448"
             xlink:href="#textext-db6f3f24-13"
             x="363.81329"
             y="146.72"
             id="use15979" />
          <use
             height="1052.3622"
             width="744.09448"
             xlink:href="#textext-db6f3f24-14"
             x="369.07153"
             y="146.72"
             id="use15981" />
        </g>
        <g
           style="fill:#000000;fill-opacity:1"
           id="g15983">
          <use
             height="1052.3622"
             width="744.09448"
             xlink:href="#textext-db6f3f24-5"
             x="374.87576"
             y="146.72"
             id="use15985" />
        </g>
        <g
           style="fill:#000000;fill-opacity:1"
           id="g15987">
          <use
             height="1052.3622"
             width="744.09448"
             xlink:href="#textext-db6f3f24-15"
             x="382.63065"
             y="146.72"
             id="use15989" />
          <use
             height="1052.3622"
             width="744.09448"
             xlink:href="#textext-db6f3f24-16"
             x="389.82562"
             y="146.72"
             id="use15991" />
          <use
             height="1052.3622"
             width="744.09448"
             xlink:href="#textext-db6f3f24-3"
             x="393.728"
             y="146.72"
             id="use15993" />
          <use
             height="1052.3622"
             width="744.09448"
             xlink:href="#textext-db6f3f24-14"
             x="398.70929"
             y="146.72"
             id="use15995" />
          <use
             height="1052.3622"
             width="744.09448"
             xlink:href="#textext-db6f3f24-17"
             x="404.24451"
             y="146.72"
             id="use15997" />
        </g>
        <g
           style="fill:#000000;fill-opacity:1"
           id="g15999">
          <use
             height="1052.3622"
             width="744.09448"
             xlink:href="#textext-db6f3f24-11"
             x="411.4913"
             y="146.72"
             id="use16001" />
          <use
             height="1052.3622"
             width="744.09448"
             xlink:href="#textext-db6f3f24-9"
             x="415.36575"
             y="146.72"
             id="use16003" />
          <use
             height="1052.3622"
             width="744.09448"
             xlink:href="#textext-db6f3f24-5"
             x="420.90097"
             y="146.72"
             id="use16005" />
        </g>
        <g
           style="fill:#000000;fill-opacity:1"
           id="g16007">
          <use
             height="1052.3622"
             width="744.09448"
             xlink:href="#textext-db6f3f24-14"
             x="428.6459"
             y="146.72"
             id="use16009" />
          <use
             height="1052.3622"
             width="744.09448"
             xlink:href="#textext-db6f3f24-9"
             x="434.18112"
             y="146.72"
             id="use16011" />
          <use
             height="1052.3622"
             width="744.09448"
             xlink:href="#textext-db6f3f24-3"
             x="439.71634"
             y="146.72"
             id="use16013" />
          <use
             height="1052.3622"
             width="744.09448"
             xlink:href="#textext-db6f3f24-17"
             x="444.69763"
             y="146.72"
             id="use16015" />
          <use
             height="1052.3622"
             width="744.09448"
             xlink:href="#textext-db6f3f24-5"
             x="448.62689"
             y="146.72"
             id="use16017" />
        </g>
        <g
           style="fill:#000000;fill-opacity:1"
           id="g16019">
          <use
             height="1052.3622"
             width="744.09448"
             xlink:href="#textext-db6f3f24-3"
             x="347.93701"
             y="158.675"
             id="use16021" />
          <use
             height="1052.3622"
             width="744.09448"
             xlink:href="#textext-db6f3f24-16"
             x="352.9183"
             y="158.675"
             id="use16023" />
          <use
             height="1052.3622"
             width="744.09448"
             xlink:href="#textext-db6f3f24-18"
             x="356.82065"
             y="158.675"
             id="use16025" />
          <use
             height="1052.3622"
             width="744.09448"
             xlink:href="#textext-db6f3f24-19"
             x="361.80194"
             y="158.675"
             id="use16027" />
          <use
             height="1052.3622"
             width="744.09448"
             xlink:href="#textext-db6f3f24-10"
             x="367.33716"
             y="158.675"
             id="use16029" />
          <use
             height="1052.3622"
             width="744.09448"
             xlink:href="#textext-db6f3f24-12"
             x="372.87241"
             y="158.675"
             id="use16031" />
        </g>
        <g
           style="fill:#000000;fill-opacity:1"
           id="g16033">
          <use
             height="1052.3622"
             width="744.09448"
             xlink:href="#textext-db6f3f24-11"
             x="381.72516"
             y="158.675"
             id="use16035" />
          <use
             height="1052.3622"
             width="744.09448"
             xlink:href="#textext-db6f3f24-9"
             x="385.59961"
             y="158.675"
             id="use16037" />
          <use
             height="1052.3622"
             width="744.09448"
             xlink:href="#textext-db6f3f24-5"
             x="391.13483"
             y="158.675"
             id="use16039" />
        </g>
        <g
           style="fill:#000000;fill-opacity:1"
           id="g16041">
          <use
             height="1052.3622"
             width="744.09448"
             xlink:href="#textext-db6f3f24-19"
             x="398.88971"
             y="158.675"
             id="use16043" />
          <use
             height="1052.3622"
             width="744.09448"
             xlink:href="#textext-db6f3f24-10"
             x="404.42493"
             y="158.675"
             id="use16045" />
        </g>
        <g
           style="fill:#000000;fill-opacity:1"
           id="g16047">
          <use
             height="1052.3622"
             width="744.09448"
             xlink:href="#textext-db6f3f24-20"
             x="409.9502"
             y="158.675"
             id="use16049" />
          <use
             height="1052.3622"
             width="744.09448"
             xlink:href="#textext-db6f3f24-11"
             x="412.7178"
             y="158.675"
             id="use16051" />
        </g>
        <g
           style="fill:#000000;fill-opacity:1"
           id="g16053">
          <use
             height="1052.3622"
             width="744.09448"
             xlink:href="#textext-db6f3f24-2"
             x="419.91977"
             y="158.675"
             id="use16055" />
          <use
             height="1052.3622"
             width="744.09448"
             xlink:href="#textext-db6f3f24-20"
             x="424.34717"
             y="158.675"
             id="use16057" />
          <use
             height="1052.3622"
             width="744.09448"
             xlink:href="#textext-db6f3f24-16"
             x="427.11478"
             y="158.675"
             id="use16059" />
          <use
             height="1052.3622"
             width="744.09448"
             xlink:href="#textext-db6f3f24-2"
             x="431.01712"
             y="158.675"
             id="use16061" />
          <use
             height="1052.3622"
             width="744.09448"
             xlink:href="#textext-db6f3f24-4"
             x="435.44449"
             y="158.675"
             id="use16063" />
          <use
             height="1052.3622"
             width="744.09448"
             xlink:href="#textext-db6f3f24-5"
             x="438.2121"
             y="158.675"
             id="use16065" />
        </g>
      </g>
    </g>
    <g
       style="display:inline"
       transform="translate(86.873118,191.7631)"
       ns0:text="$\\phi(t)$"
       ns0:preamble=""
       id="g9175">
      <defs
         id="defs9177">
        <g
           id="g9179">
          <symbol
             overflow="visible"
             id="textext-bfceccdd-0"
             style="overflow:visible">
            <path
               style="stroke:none"
               d=""
               id="path9182"
               inkscape:connector-curvature="0" />
          </symbol>
          <symbol
             overflow="visible"
             id="textext-bfceccdd-1"
             style="overflow:visible">
            <path
               style="stroke:none"
               d="m 4.359375,-6.671875 c 0,-0.03125 0.03125,-0.140625 0.03125,-0.140625 0,-0.015625 0,-0.109375 -0.125,-0.109375 -0.09375,0 -0.109375,0.03125 -0.15625,0.203125 L 3.53125,-4.421875 c -1.578125,0.0625 -3.046875,1.375 -3.046875,2.734375 0,0.953125 0.703125,1.734375 1.921875,1.8125 C 2.328125,0.421875 2.25,0.75 2.171875,1.0625 c -0.125,0.46875 -0.21875,0.84375 -0.21875,0.875 0,0.09375 0.078125,0.109375 0.125,0.109375 C 2.125,2.046875 2.140625,2.03125 2.171875,2 2.1875,1.984375 2.25,1.75 2.28125,1.609375 L 2.65625,0.125 c 1.609375,-0.0625 3.0625,-1.40625 3.0625,-2.734375 0,-0.796875 -0.53125,-1.703125 -1.921875,-1.8125 z m -1.90625,6.578125 c -0.59375,-0.03125 -1.3125,-0.390625 -1.3125,-1.375 0,-1.203125 0.859375,-2.59375 2.34375,-2.734375 z m 1.28125,-4.109375 c 0.765625,0.046875 1.328125,0.5 1.328125,1.375 0,1.1875 -0.859375,2.609375 -2.34375,2.734375 z"
               id="path9185"
               inkscape:connector-curvature="0" />
          </symbol>
          <symbol
             overflow="visible"
             id="textext-bfceccdd-2"
             style="overflow:visible">
            <path
               style="stroke:none"
               d="m 2.046875,-3.984375 0.9375,0 c 0.203125,0 0.3125,0 0.3125,-0.203125 0,-0.109375 -0.109375,-0.109375 -0.28125,-0.109375 l -0.875,0 C 2.5,-5.71875 2.546875,-5.90625 2.546875,-5.96875 c 0,-0.171875 -0.125,-0.265625 -0.296875,-0.265625 -0.03125,0 -0.3125,0 -0.390625,0.359375 l -0.390625,1.578125 -0.9375,0 c -0.203125,0 -0.296875,0 -0.296875,0.1875 0,0.125 0.078125,0.125 0.28125,0.125 l 0.875,0 C 0.671875,-1.15625 0.625,-0.984375 0.625,-0.8125 0.625,-0.265625 1,0.109375 1.546875,0.109375 2.5625,0.109375 3.125,-1.34375 3.125,-1.421875 3.125,-1.53125 3.046875,-1.53125 3.015625,-1.53125 2.921875,-1.53125 2.90625,-1.5 2.859375,-1.390625 2.4375,-0.34375 1.90625,-0.109375 1.5625,-0.109375 c -0.203125,0 -0.3125,-0.125 -0.3125,-0.453125 0,-0.25 0.03125,-0.3125 0.0625,-0.484375 z"
               id="path9188"
               inkscape:connector-curvature="0" />
          </symbol>
          <symbol
             overflow="visible"
             id="textext-bfceccdd-3"
             style="overflow:visible">
            <path
               style="stroke:none"
               d=""
               id="path9191"
               inkscape:connector-curvature="0" />
          </symbol>
          <symbol
             overflow="visible"
             id="textext-bfceccdd-4"
             style="overflow:visible">
            <path
               style="stroke:none"
               d="m 3.296875,2.390625 c 0,-0.03125 0,-0.046875 -0.171875,-0.21875 C 1.890625,0.921875 1.5625,-0.96875 1.5625,-2.5 c 0,-1.734375 0.375,-3.46875 1.609375,-4.703125 0.125,-0.125 0.125,-0.140625 0.125,-0.171875 0,-0.078125 -0.03125,-0.109375 -0.09375,-0.109375 -0.109375,0 -1,0.6875 -1.59375,1.953125 -0.5,1.09375 -0.625,2.203125 -0.625,3.03125 0,0.78125 0.109375,1.984375 0.65625,3.125 C 2.25,1.84375 3.09375,2.5 3.203125,2.5 c 0.0625,0 0.09375,-0.03125 0.09375,-0.109375 z"
               id="path9194"
               inkscape:connector-curvature="0" />
          </symbol>
          <symbol
             overflow="visible"
             id="textext-bfceccdd-5"
             style="overflow:visible">
            <path
               style="stroke:none"
               d="m 2.875,-2.5 c 0,-0.765625 -0.109375,-1.96875 -0.65625,-3.109375 -0.59375,-1.21875 -1.453125,-1.875 -1.546875,-1.875 -0.0625,0 -0.109375,0.046875 -0.109375,0.109375 0,0.03125 0,0.046875 0.1875,0.234375 0.984375,0.984375 1.546875,2.5625 1.546875,4.640625 0,1.71875 -0.359375,3.46875 -1.59375,4.71875 C 0.5625,2.34375 0.5625,2.359375 0.5625,2.390625 0.5625,2.453125 0.609375,2.5 0.671875,2.5 0.765625,2.5 1.671875,1.8125 2.25,0.546875 2.765625,-0.546875 2.875,-1.65625 2.875,-2.5 z"
               id="path9197"
               inkscape:connector-curvature="0" />
          </symbol>
        </g>
      </defs>
      <g
         id="textext-bfceccdd-6">
        <g
           style="fill:#000000;fill-opacity:1"
           id="g9200">
          <use
             xlink:href="#textext-bfceccdd-1"
             x="223.43201"
             y="134.765"
             id="use9202"
             width="744.09448"
             height="1052.3622" />
        </g>
        <g
           style="fill:#000000;fill-opacity:1"
           id="g9204">
          <use
             xlink:href="#textext-bfceccdd-4"
             x="229.368"
             y="134.765"
             id="use9206"
             width="744.09448"
             height="1052.3622" />
        </g>
        <g
           style="fill:#000000;fill-opacity:1"
           id="g9208">
          <use
             xlink:href="#textext-bfceccdd-2"
             x="233.243"
             y="134.765"
             id="use9210"
             width="744.09448"
             height="1052.3622" />
        </g>
        <g
           style="fill:#000000;fill-opacity:1"
           id="g9212">
          <use
             xlink:href="#textext-bfceccdd-5"
             x="236.84"
             y="134.765"
             id="use9214"
             width="744.09448"
             height="1052.3622" />
        </g>
      </g>
    </g>
    <g
       style="display:inline"
       id="g9626"
       ns0:preamble=""
       ns0:text="$t$"
       transform="translate(315.76188,258.09397)">
      <defs
         id="defs9628">
        <g
           id="g9630">
          <symbol
             id="textext-e0eb85d6-0"
             overflow="visible"
             style="overflow:visible">
            <path
               id="path9633"
               d=""
               style="stroke:none"
               inkscape:connector-curvature="0" />
          </symbol>
          <symbol
             id="textext-e0eb85d6-1"
             overflow="visible"
             style="overflow:visible">
            <path
               id="path9636"
               d="m 2.046875,-3.984375 0.9375,0 c 0.203125,0 0.3125,0 0.3125,-0.203125 0,-0.109375 -0.109375,-0.109375 -0.28125,-0.109375 l -0.875,0 C 2.5,-5.71875 2.546875,-5.90625 2.546875,-5.96875 c 0,-0.171875 -0.125,-0.265625 -0.296875,-0.265625 -0.03125,0 -0.3125,0 -0.390625,0.359375 l -0.390625,1.578125 -0.9375,0 c -0.203125,0 -0.296875,0 -0.296875,0.1875 0,0.125 0.078125,0.125 0.28125,0.125 l 0.875,0 C 0.671875,-1.15625 0.625,-0.984375 0.625,-0.8125 0.625,-0.265625 1,0.109375 1.546875,0.109375 2.5625,0.109375 3.125,-1.34375 3.125,-1.421875 3.125,-1.53125 3.046875,-1.53125 3.015625,-1.53125 2.921875,-1.53125 2.90625,-1.5 2.859375,-1.390625 2.4375,-0.34375 1.90625,-0.109375 1.5625,-0.109375 c -0.203125,0 -0.3125,-0.125 -0.3125,-0.453125 0,-0.25 0.03125,-0.3125 0.0625,-0.484375 z"
               style="stroke:none"
               inkscape:connector-curvature="0" />
          </symbol>
        </g>
      </defs>
      <g
         id="textext-e0eb85d6-2">
        <g
           id="g9639"
           style="fill:#000000;fill-opacity:1">
          <use
             id="use9641"
             y="134.765"
             x="223.43201"
             xlink:href="#textext-e0eb85d6-1"
             width="744.09448"
             height="1052.3622" />
        </g>
      </g>
    </g>
  </g>
</svg>
