<?xml version="1.0" encoding="UTF-8" standalone="no"?>
<!-- Created with Inkscape (http://www.inkscape.org/) -->

<svg
   xmlns:ns0="http://www.iki.fi/pav/software/textext/"
   xmlns:dc="http://purl.org/dc/elements/1.1/"
   xmlns:cc="http://creativecommons.org/ns#"
   xmlns:rdf="http://www.w3.org/1999/02/22-rdf-syntax-ns#"
   xmlns:svg="http://www.w3.org/2000/svg"
   xmlns="http://www.w3.org/2000/svg"
   xmlns:xlink="http://www.w3.org/1999/xlink"
   xmlns:sodipodi="http://sodipodi.sourceforge.net/DTD/sodipodi-0.dtd"
   xmlns:inkscape="http://www.inkscape.org/namespaces/inkscape"
   sodipodi:docname="phase_carrier.svg"
   inkscape:version="0.48.4 r9939"
   version="1.1"
   id="svg2"
   height="1052.3622047"
   width="744.09448819">
  <sodipodi:namedview
     id="base"
     pagecolor="#ffffff"
     bordercolor="#666666"
     borderopacity="1.0"
     inkscape:pageopacity="0.0"
     inkscape:pageshadow="2"
     inkscape:zoom="2.1832972"
     inkscape:cx="459.13719"
     inkscape:cy="678.54927"
     inkscape:document-units="px"
     inkscape:current-layer="textext-bfceccdd-6"
     showgrid="false"
     inkscape:window-width="1366"
     inkscape:window-height="743"
     inkscape:window-x="0"
     inkscape:window-y="25"
     inkscape:window-maximized="1">
    <inkscape:grid
       id="grid2985"
       type="xygrid" />
  </sodipodi:namedview>
  <defs
     id="defs4">
    <marker
       inkscape:stockid="Arrow2Mend"
       orient="auto"
       refY="0.0"
       refX="0.0"
       id="Arrow2Mend"
       style="overflow:visible;">
      <path
         id="path7163"
         style="fill-rule:evenodd;stroke-width:0.62500000;stroke-linejoin:round;"
         d="M 8.7185878,4.0337352 L -2.2072895,0.016013256 L 8.7185884,-4.0017078 C 6.9730900,-1.6296469 6.9831476,1.6157441 8.7185878,4.0337352 z "
         transform="scale(0.6) rotate(180) translate(0,0)" />
    </marker>
    <clipPath
       clipPathUnits="userSpaceOnUse"
       id="clipPath3039">
      <path
         inkscape:connector-curvature="0"
         d="m 3,2 4777,0 0,3848 L 3,3850 3,2 z"
         id="path3041" />
    </clipPath>
    <clipPath
       clipPathUnits="userSpaceOnUse"
       id="clipPath3229">
      <path
         inkscape:connector-curvature="0"
         d="m 229.168,123.332 4464.16,0 0,3522.5 -4464.16,0 0,-3522.5 z"
         id="path3231" />
    </clipPath>
    <clipPath
       clipPathUnits="userSpaceOnUse"
       id="clipPath3039-4">
      <path
         inkscape:connector-curvature="0"
         d="m 3,2 4777,0 0,3848 L 3,3850 3,2 z"
         id="path3041-6" />
    </clipPath>
    <clipPath
       clipPathUnits="userSpaceOnUse"
       id="clipPath3229-3">
      <path
         inkscape:connector-curvature="0"
         d="m 229.168,123.332 4464.16,0 0,3522.5 -4464.16,0 0,-3522.5 z"
         id="path3231-8" />
    </clipPath>
  </defs>
  <metadata
     id="metadata7">
    <rdf:RDF>
      <cc:Work
         rdf:about="">
        <dc:format>image/svg+xml</dc:format>
        <dc:type
           rdf:resource="http://purl.org/dc/dcmitype/StillImage" />
        <dc:title />
      </cc:Work>
    </rdf:RDF>
  </metadata>
  <g
     inkscape:groupmode="layer"
     id="layer9"
     inkscape:label="frame"
     style="display:none"
     sodipodi:insensitive="true">
    <g
       transform="matrix(0.0625,0,0,-0.0625,303.779,434.3934)"
       id="g3035">
      <g
         id="g3037"
         clip-path="url(#clipPath3039-4)">
        <path
           inkscape:connector-curvature="0"
           d="m 0,0 5240.83,0 0,3970 L 0,3970 0,0 z"
           style="fill:#ffffff;fill-opacity:1;fill-rule:nonzero;stroke:none"
           id="path3043" />
        <path
           inkscape:connector-curvature="0"
           d="m 229.168,124.168 4462.5,0 0,3521.66 -4462.5,0 0,-3521.66 z"
           style="fill:#ffffff;fill-opacity:1;fill-rule:evenodd;stroke:none"
           id="path3045" />
        <path
           inkscape:connector-curvature="0"
           d="m 229.168,124.168 0,3521.662 4462.502,0 0,-3521.662 -4462.502,0"
           style="fill:none;stroke:#ffffff;stroke-width:10;stroke-linecap:butt;stroke-linejoin:round;stroke-miterlimit:10;stroke-opacity:1;stroke-dasharray:none"
           id="path3047" />
        <path
           inkscape:connector-curvature="0"
           d="m 229.168,124.168 4462.502,0"
           style="fill:none;stroke:#000000;stroke-width:10;stroke-linecap:butt;stroke-linejoin:round;stroke-miterlimit:10;stroke-opacity:1;stroke-dasharray:none"
           id="path3049" />
        <path
           inkscape:connector-curvature="0"
           d="m 229.168,3645.83 4462.502,0"
           style="fill:none;stroke:#000000;stroke-width:10;stroke-linecap:butt;stroke-linejoin:round;stroke-miterlimit:10;stroke-opacity:1;stroke-dasharray:none"
           id="path3051" />
        <path
           inkscape:connector-curvature="0"
           d="m 229.168,124.168 0,3521.662"
           style="fill:none;stroke:#000000;stroke-width:10;stroke-linecap:butt;stroke-linejoin:round;stroke-miterlimit:10;stroke-opacity:1;stroke-dasharray:none"
           id="path3053" />
        <path
           inkscape:connector-curvature="0"
           d="m 4691.67,124.168 0,3521.662"
           style="fill:none;stroke:#000000;stroke-width:10;stroke-linecap:butt;stroke-linejoin:round;stroke-miterlimit:10;stroke-opacity:1;stroke-dasharray:none"
           id="path3055" />
        <path
           inkscape:connector-curvature="0"
           d="m 229.168,124.168 4462.502,0"
           style="fill:none;stroke:#000000;stroke-width:10;stroke-linecap:butt;stroke-linejoin:round;stroke-miterlimit:10;stroke-opacity:1;stroke-dasharray:none"
           id="path3057" />
        <path
           inkscape:connector-curvature="0"
           d="m 229.168,124.168 0,3521.662"
           style="fill:none;stroke:#000000;stroke-width:10;stroke-linecap:butt;stroke-linejoin:round;stroke-miterlimit:10;stroke-opacity:1;stroke-dasharray:none"
           id="path3059" />
        <path
           inkscape:connector-curvature="0"
           d="m 229.168,124.168 0,45"
           style="fill:none;stroke:#000000;stroke-width:10;stroke-linecap:butt;stroke-linejoin:round;stroke-miterlimit:10;stroke-opacity:1;stroke-dasharray:none"
           id="path3061" />
        <path
           inkscape:connector-curvature="0"
           d="m 229.168,3645.83 0,-44.16"
           style="fill:none;stroke:#000000;stroke-width:10;stroke-linecap:butt;stroke-linejoin:round;stroke-miterlimit:10;stroke-opacity:1;stroke-dasharray:none"
           id="path3063" />
        <g
           id="g3065"
           transform="scale(10,10)">
          <text
             transform="matrix(1,0,0,-1,20.1668,0.333203)"
             id="text3067">
            <tspan
               style="font-size:10px;font-variant:normal;font-weight:normal;writing-mode:lr-tb;fill:#000000;fill-opacity:1;fill-rule:nonzero;stroke:none;font-family:Helvetica;-inkscape-font-specification:Helvetica"
               x="0"
               y="0"
               id="tspan3069">0</tspan>
          </text>
        </g>
        <path
           inkscape:connector-curvature="0"
           d="m 866.668,124.168 0,45"
           style="fill:none;stroke:#000000;stroke-width:10;stroke-linecap:butt;stroke-linejoin:round;stroke-miterlimit:10;stroke-opacity:1;stroke-dasharray:none"
           id="path3071" />
        <path
           inkscape:connector-curvature="0"
           d="m 866.668,3645.83 0,-44.16"
           style="fill:none;stroke:#000000;stroke-width:10;stroke-linecap:butt;stroke-linejoin:round;stroke-miterlimit:10;stroke-opacity:1;stroke-dasharray:none"
           id="path3073" />
        <g
           id="g3075"
           transform="scale(10,10)">
          <text
             transform="matrix(1,0,0,-1,83.9168,0.333203)"
             id="text3077">
            <tspan
               style="font-size:10px;font-variant:normal;font-weight:normal;writing-mode:lr-tb;fill:#000000;fill-opacity:1;fill-rule:nonzero;stroke:none;font-family:Helvetica;-inkscape-font-specification:Helvetica"
               x="0"
               y="0"
               id="tspan3079">5</tspan>
          </text>
        </g>
        <path
           inkscape:connector-curvature="0"
           d="m 1504.17,124.168 0,45"
           style="fill:none;stroke:#000000;stroke-width:10;stroke-linecap:butt;stroke-linejoin:round;stroke-miterlimit:10;stroke-opacity:1;stroke-dasharray:none"
           id="path3081" />
        <path
           inkscape:connector-curvature="0"
           d="m 1504.17,3645.83 0,-44.16"
           style="fill:none;stroke:#000000;stroke-width:10;stroke-linecap:butt;stroke-linejoin:round;stroke-miterlimit:10;stroke-opacity:1;stroke-dasharray:none"
           id="path3083" />
        <g
           id="g3085"
           transform="scale(10,10)">
          <text
             transform="matrix(1,0,0,-1,144.917,0.333203)"
             id="text3087">
            <tspan
               style="font-size:10px;font-variant:normal;font-weight:normal;writing-mode:lr-tb;fill:#000000;fill-opacity:1;fill-rule:nonzero;stroke:none;font-family:Helvetica;-inkscape-font-specification:Helvetica"
               x="0 5.5599999"
               y="0"
               sodipodi:role="line"
               id="tspan3089">10</tspan>
          </text>
        </g>
        <path
           inkscape:connector-curvature="0"
           d="m 2141.67,124.168 0,45"
           style="fill:none;stroke:#000000;stroke-width:10;stroke-linecap:butt;stroke-linejoin:round;stroke-miterlimit:10;stroke-opacity:1;stroke-dasharray:none"
           id="path3091" />
        <path
           inkscape:connector-curvature="0"
           d="m 2141.67,3645.83 0,-44.16"
           style="fill:none;stroke:#000000;stroke-width:10;stroke-linecap:butt;stroke-linejoin:round;stroke-miterlimit:10;stroke-opacity:1;stroke-dasharray:none"
           id="path3093" />
        <g
           id="g3095"
           transform="scale(10,10)">
          <text
             transform="matrix(1,0,0,-1,208.667,0.333203)"
             id="text3097">
            <tspan
               style="font-size:10px;font-variant:normal;font-weight:normal;writing-mode:lr-tb;fill:#000000;fill-opacity:1;fill-rule:nonzero;stroke:none;font-family:Helvetica;-inkscape-font-specification:Helvetica"
               x="0 5.5599999"
               y="0"
               sodipodi:role="line"
               id="tspan3099">15</tspan>
          </text>
        </g>
        <path
           inkscape:connector-curvature="0"
           d="m 2779.17,124.168 0,45"
           style="fill:none;stroke:#000000;stroke-width:10;stroke-linecap:butt;stroke-linejoin:round;stroke-miterlimit:10;stroke-opacity:1;stroke-dasharray:none"
           id="path3101" />
        <path
           inkscape:connector-curvature="0"
           d="m 2779.17,3645.83 0,-44.16"
           style="fill:none;stroke:#000000;stroke-width:10;stroke-linecap:butt;stroke-linejoin:round;stroke-miterlimit:10;stroke-opacity:1;stroke-dasharray:none"
           id="path3103" />
        <g
           id="g3105"
           transform="scale(10,10)">
          <text
             transform="matrix(1,0,0,-1,272.417,0.333203)"
             id="text3107">
            <tspan
               style="font-size:10px;font-variant:normal;font-weight:normal;writing-mode:lr-tb;fill:#000000;fill-opacity:1;fill-rule:nonzero;stroke:none;font-family:Helvetica;-inkscape-font-specification:Helvetica"
               x="0 5.5599999"
               y="0"
               sodipodi:role="line"
               id="tspan3109">20</tspan>
          </text>
        </g>
        <path
           inkscape:connector-curvature="0"
           d="m 3416.67,124.168 0,45"
           style="fill:none;stroke:#000000;stroke-width:10;stroke-linecap:butt;stroke-linejoin:round;stroke-miterlimit:10;stroke-opacity:1;stroke-dasharray:none"
           id="path3111" />
        <path
           inkscape:connector-curvature="0"
           d="m 3416.67,3645.83 0,-44.16"
           style="fill:none;stroke:#000000;stroke-width:10;stroke-linecap:butt;stroke-linejoin:round;stroke-miterlimit:10;stroke-opacity:1;stroke-dasharray:none"
           id="path3113" />
        <g
           id="g3115"
           transform="scale(10,10)">
          <text
             transform="matrix(1,0,0,-1,336.167,0.333203)"
             id="text3117">
            <tspan
               style="font-size:10px;font-variant:normal;font-weight:normal;writing-mode:lr-tb;fill:#000000;fill-opacity:1;fill-rule:nonzero;stroke:none;font-family:Helvetica;-inkscape-font-specification:Helvetica"
               x="0 5.5599999"
               y="0"
               sodipodi:role="line"
               id="tspan3119">25</tspan>
          </text>
        </g>
        <path
           inkscape:connector-curvature="0"
           d="m 4054.17,124.168 0,45"
           style="fill:none;stroke:#000000;stroke-width:10;stroke-linecap:butt;stroke-linejoin:round;stroke-miterlimit:10;stroke-opacity:1;stroke-dasharray:none"
           id="path3121" />
        <path
           inkscape:connector-curvature="0"
           d="m 4054.17,3645.83 0,-44.16"
           style="fill:none;stroke:#000000;stroke-width:10;stroke-linecap:butt;stroke-linejoin:round;stroke-miterlimit:10;stroke-opacity:1;stroke-dasharray:none"
           id="path3123" />
        <g
           id="g3125"
           transform="scale(10,10)">
          <text
             transform="matrix(1,0,0,-1,399.917,0.333203)"
             id="text3127">
            <tspan
               style="font-size:10px;font-variant:normal;font-weight:normal;writing-mode:lr-tb;fill:#000000;fill-opacity:1;fill-rule:nonzero;stroke:none;font-family:Helvetica;-inkscape-font-specification:Helvetica"
               x="0 5.5599999"
               y="0"
               sodipodi:role="line"
               id="tspan3129">30</tspan>
          </text>
        </g>
        <path
           inkscape:connector-curvature="0"
           d="m 4692.5,124.168 0,45"
           style="fill:none;stroke:#000000;stroke-width:10;stroke-linecap:butt;stroke-linejoin:round;stroke-miterlimit:10;stroke-opacity:1;stroke-dasharray:none"
           id="path3131" />
        <path
           inkscape:connector-curvature="0"
           d="m 4692.5,3645.83 0,-44.16"
           style="fill:none;stroke:#000000;stroke-width:10;stroke-linecap:butt;stroke-linejoin:round;stroke-miterlimit:10;stroke-opacity:1;stroke-dasharray:none"
           id="path3133" />
        <g
           id="g3135"
           transform="scale(10,10)">
          <text
             transform="matrix(1,0,0,-1,463.75,0.333203)"
             id="text3137">
            <tspan
               style="font-size:10px;font-variant:normal;font-weight:normal;writing-mode:lr-tb;fill:#000000;fill-opacity:1;fill-rule:nonzero;stroke:none;font-family:Helvetica;-inkscape-font-specification:Helvetica"
               x="0 5.5599999"
               y="0"
               sodipodi:role="line"
               id="tspan3139">35</tspan>
          </text>
        </g>
        <path
           inkscape:connector-curvature="0"
           d="m 229.168,124.168 44.164,0"
           style="fill:none;stroke:#000000;stroke-width:10;stroke-linecap:butt;stroke-linejoin:round;stroke-miterlimit:10;stroke-opacity:1;stroke-dasharray:none"
           id="path3141" />
        <path
           inkscape:connector-curvature="0"
           d="m 4692.5,124.168 -45,0"
           style="fill:none;stroke:#000000;stroke-width:10;stroke-linecap:butt;stroke-linejoin:round;stroke-miterlimit:10;stroke-opacity:1;stroke-dasharray:none"
           id="path3143" />
        <g
           id="g3145"
           transform="scale(10,10)">
          <text
             transform="matrix(1,0,0,-1,0.333203,8.75)"
             id="text3147">
            <tspan
               style="font-size:10px;font-variant:normal;font-weight:normal;writing-mode:lr-tb;fill:#000000;fill-opacity:1;fill-rule:nonzero;stroke:none;font-family:Helvetica;-inkscape-font-specification:Helvetica"
               x="0 5.8400002 11.4 14.18"
               y="0"
               sodipodi:role="line"
               id="tspan3149">−0.5</tspan>
          </text>
        </g>
        <path
           inkscape:connector-curvature="0"
           d="m 229.168,711.668 44.164,0"
           style="fill:none;stroke:#000000;stroke-width:10;stroke-linecap:butt;stroke-linejoin:round;stroke-miterlimit:10;stroke-opacity:1;stroke-dasharray:none"
           id="path3151" />
        <path
           inkscape:connector-curvature="0"
           d="m 4692.5,711.668 -45,0"
           style="fill:none;stroke:#000000;stroke-width:10;stroke-linecap:butt;stroke-linejoin:round;stroke-miterlimit:10;stroke-opacity:1;stroke-dasharray:none"
           id="path3153" />
        <g
           id="g3155"
           transform="scale(10,10)">
          <text
             transform="matrix(1,0,0,-1,14.5,67.5)"
             id="text3157">
            <tspan
               style="font-size:10px;font-variant:normal;font-weight:normal;writing-mode:lr-tb;fill:#000000;fill-opacity:1;fill-rule:nonzero;stroke:none;font-family:Helvetica;-inkscape-font-specification:Helvetica"
               x="0"
               y="0"
               id="tspan3159">0</tspan>
          </text>
        </g>
        <path
           inkscape:connector-curvature="0"
           d="m 229.168,1298.33 44.164,0"
           style="fill:none;stroke:#000000;stroke-width:10;stroke-linecap:butt;stroke-linejoin:round;stroke-miterlimit:10;stroke-opacity:1;stroke-dasharray:none"
           id="path3161" />
        <path
           inkscape:connector-curvature="0"
           d="m 4692.5,1298.33 -45,0"
           style="fill:none;stroke:#000000;stroke-width:10;stroke-linecap:butt;stroke-linejoin:round;stroke-miterlimit:10;stroke-opacity:1;stroke-dasharray:none"
           id="path3163" />
        <g
           id="g3165"
           transform="scale(10,10)">
          <text
             transform="matrix(1,0,0,-1,6.1668,126.167)"
             id="text3167">
            <tspan
               style="font-size:10px;font-variant:normal;font-weight:normal;writing-mode:lr-tb;fill:#000000;fill-opacity:1;fill-rule:nonzero;stroke:none;font-family:Helvetica;-inkscape-font-specification:Helvetica"
               x="0 5.5599999 8.3400002"
               y="0"
               sodipodi:role="line"
               id="tspan3169">0.5</tspan>
          </text>
        </g>
        <path
           inkscape:connector-curvature="0"
           d="m 229.168,1885 44.164,0"
           style="fill:none;stroke:#000000;stroke-width:10;stroke-linecap:butt;stroke-linejoin:round;stroke-miterlimit:10;stroke-opacity:1;stroke-dasharray:none"
           id="path3171" />
        <path
           inkscape:connector-curvature="0"
           d="m 4692.5,1885 -45,0"
           style="fill:none;stroke:#000000;stroke-width:10;stroke-linecap:butt;stroke-linejoin:round;stroke-miterlimit:10;stroke-opacity:1;stroke-dasharray:none"
           id="path3173" />
        <g
           id="g3175"
           transform="scale(10,10)">
          <text
             transform="matrix(1,0,0,-1,14.5,184.833)"
             id="text3177">
            <tspan
               style="font-size:10px;font-variant:normal;font-weight:normal;writing-mode:lr-tb;fill:#000000;fill-opacity:1;fill-rule:nonzero;stroke:none;font-family:Helvetica;-inkscape-font-specification:Helvetica"
               x="0"
               y="0"
               id="tspan3179">1</tspan>
          </text>
        </g>
        <path
           inkscape:connector-curvature="0"
           d="m 229.168,2472.5 44.164,0"
           style="fill:none;stroke:#000000;stroke-width:10;stroke-linecap:butt;stroke-linejoin:round;stroke-miterlimit:10;stroke-opacity:1;stroke-dasharray:none"
           id="path3181" />
        <path
           inkscape:connector-curvature="0"
           d="m 4692.5,2472.5 -45,0"
           style="fill:none;stroke:#000000;stroke-width:10;stroke-linecap:butt;stroke-linejoin:round;stroke-miterlimit:10;stroke-opacity:1;stroke-dasharray:none"
           id="path3183" />
        <g
           id="g3185"
           transform="scale(10,10)">
          <text
             transform="matrix(1,0,0,-1,6.1668,243.583)"
             id="text3187">
            <tspan
               style="font-size:10px;font-variant:normal;font-weight:normal;writing-mode:lr-tb;fill:#000000;fill-opacity:1;fill-rule:nonzero;stroke:none;font-family:Helvetica;-inkscape-font-specification:Helvetica"
               x="0 5.5599999 8.3400002"
               y="0"
               sodipodi:role="line"
               id="tspan3189">1.5</tspan>
          </text>
        </g>
        <path
           inkscape:connector-curvature="0"
           d="m 229.168,3059.17 44.164,0"
           style="fill:none;stroke:#000000;stroke-width:10;stroke-linecap:butt;stroke-linejoin:round;stroke-miterlimit:10;stroke-opacity:1;stroke-dasharray:none"
           id="path3191" />
        <path
           inkscape:connector-curvature="0"
           d="m 4692.5,3059.17 -45,0"
           style="fill:none;stroke:#000000;stroke-width:10;stroke-linecap:butt;stroke-linejoin:round;stroke-miterlimit:10;stroke-opacity:1;stroke-dasharray:none"
           id="path3193" />
        <g
           id="g3195"
           transform="scale(10,10)">
          <text
             transform="matrix(1,0,0,-1,14.5,302.25)"
             id="text3197">
            <tspan
               style="font-size:10px;font-variant:normal;font-weight:normal;writing-mode:lr-tb;fill:#000000;fill-opacity:1;fill-rule:nonzero;stroke:none;font-family:Helvetica;-inkscape-font-specification:Helvetica"
               x="0"
               y="0"
               id="tspan3199">2</tspan>
          </text>
        </g>
        <path
           inkscape:connector-curvature="0"
           d="m 229.168,3645.83 44.164,0"
           style="fill:none;stroke:#000000;stroke-width:10;stroke-linecap:butt;stroke-linejoin:round;stroke-miterlimit:10;stroke-opacity:1;stroke-dasharray:none"
           id="path3201" />
        <path
           inkscape:connector-curvature="0"
           d="m 4692.5,3645.83 -45,0"
           style="fill:none;stroke:#000000;stroke-width:10;stroke-linecap:butt;stroke-linejoin:round;stroke-miterlimit:10;stroke-opacity:1;stroke-dasharray:none"
           id="path3203" />
        <g
           id="g3205"
           transform="scale(10,10)">
          <text
             transform="matrix(1,0,0,-1,6.1668,360.917)"
             id="text3207">
            <tspan
               style="font-size:10px;font-variant:normal;font-weight:normal;writing-mode:lr-tb;fill:#000000;fill-opacity:1;fill-rule:nonzero;stroke:none;font-family:Helvetica;-inkscape-font-specification:Helvetica"
               x="0 5.5599999 8.3400002"
               y="0"
               sodipodi:role="line"
               id="tspan3209">2.5</tspan>
            <tspan
               style="font-size:10px;font-variant:normal;font-weight:normal;writing-mode:lr-tb;fill:#000000;fill-opacity:1;fill-rule:nonzero;stroke:none;font-family:Helvetica;-inkscape-font-specification:Helvetica"
               x="16.75 21.75 24.530001 30.09"
               y="-8.1664104"
               sodipodi:role="line"
               id="tspan3211">x 10</tspan>
          </text>
          <text
             transform="matrix(1,0,0,-1,41.75,375.25021)"
             id="text3213">
            <tspan
               style="font-size:6.66666985px;font-variant:normal;font-weight:normal;writing-mode:lr-tb;fill:#000000;fill-opacity:1;fill-rule:nonzero;stroke:none;font-family:Helvetica;-inkscape-font-specification:Helvetica"
               x="0"
               y="0"
               id="tspan3215">5</tspan>
          </text>
        </g>
        <path
           inkscape:connector-curvature="0"
           d="m 229.168,124.168 4462.502,0"
           style="fill:none;stroke:#000000;stroke-width:10;stroke-linecap:butt;stroke-linejoin:round;stroke-miterlimit:10;stroke-opacity:1;stroke-dasharray:none"
           id="path3217" />
        <path
           inkscape:connector-curvature="0"
           d="m 229.168,3645.83 4462.502,0"
           style="fill:none;stroke:#000000;stroke-width:10;stroke-linecap:butt;stroke-linejoin:round;stroke-miterlimit:10;stroke-opacity:1;stroke-dasharray:none"
           id="path3219" />
        <path
           inkscape:connector-curvature="0"
           d="m 229.168,124.168 0,3521.662"
           style="fill:none;stroke:#000000;stroke-width:10;stroke-linecap:butt;stroke-linejoin:round;stroke-miterlimit:10;stroke-opacity:1;stroke-dasharray:none"
           id="path3221" />
        <path
           inkscape:connector-curvature="0"
           d="m 4691.67,124.168 0,3521.662"
           style="fill:none;stroke:#000000;stroke-width:10;stroke-linecap:butt;stroke-linejoin:round;stroke-miterlimit:10;stroke-opacity:1;stroke-dasharray:none"
           id="path3223" />
      </g>
    </g>
  </g>
  <g
     inkscape:groupmode="layer"
     id="layer10"
     inkscape:label="frame2">
    <path
       style="fill:none;stroke:#000000;stroke-width:1px;stroke-linecap:butt;stroke-linejoin:miter;stroke-opacity:1;marker-end:url(#Arrow2Mend)"
       d="m 318.89764,425.19683 0,-70.86614"
       id="path7128"
       inkscape:connector-curvature="0" />
    <path
       style="fill:none;stroke:#000000;stroke-width:1px;stroke-linecap:butt;stroke-linejoin:miter;stroke-opacity:1;marker-end:url(#Arrow2Mend)"
       d="m 311.34503,407.93731 272.83465,0"
       id="path7130"
       inkscape:connector-curvature="0"
       sodipodi:nodetypes="cc" />
  </g>
  <g
     inkscape:groupmode="layer"
     id="layer12"
     inkscape:label="wrapped">
    <g
       transform="translate(86.368042,211.12188)"
       ns0:text="$\\phi(t)$"
       ns0:preamble=""
       id="g9175">
      <defs
         id="defs9177">
        <g
           id="g9179">
          <symbol
             overflow="visible"
             id="textext-bfceccdd-0"
             style="overflow:visible">
            <path
               style="stroke:none"
               d=""
               id="path9182"
               inkscape:connector-curvature="0" />
          </symbol>
          <symbol
             overflow="visible"
             id="textext-bfceccdd-1"
             style="overflow:visible">
            <path
               style="stroke:none"
               d="m 4.359375,-6.671875 c 0,-0.03125 0.03125,-0.140625 0.03125,-0.140625 0,-0.015625 0,-0.109375 -0.125,-0.109375 -0.09375,0 -0.109375,0.03125 -0.15625,0.203125 L 3.53125,-4.421875 c -1.578125,0.0625 -3.046875,1.375 -3.046875,2.734375 0,0.953125 0.703125,1.734375 1.921875,1.8125 C 2.328125,0.421875 2.25,0.75 2.171875,1.0625 c -0.125,0.46875 -0.21875,0.84375 -0.21875,0.875 0,0.09375 0.078125,0.109375 0.125,0.109375 C 2.125,2.046875 2.140625,2.03125 2.171875,2 2.1875,1.984375 2.25,1.75 2.28125,1.609375 L 2.65625,0.125 c 1.609375,-0.0625 3.0625,-1.40625 3.0625,-2.734375 0,-0.796875 -0.53125,-1.703125 -1.921875,-1.8125 z m -1.90625,6.578125 c -0.59375,-0.03125 -1.3125,-0.390625 -1.3125,-1.375 0,-1.203125 0.859375,-2.59375 2.34375,-2.734375 z m 1.28125,-4.109375 c 0.765625,0.046875 1.328125,0.5 1.328125,1.375 0,1.1875 -0.859375,2.609375 -2.34375,2.734375 z"
               id="path9185"
               inkscape:connector-curvature="0" />
          </symbol>
          <symbol
             overflow="visible"
             id="textext-bfceccdd-2"
             style="overflow:visible">
            <path
               style="stroke:none"
               d="m 2.046875,-3.984375 0.9375,0 c 0.203125,0 0.3125,0 0.3125,-0.203125 0,-0.109375 -0.109375,-0.109375 -0.28125,-0.109375 l -0.875,0 C 2.5,-5.71875 2.546875,-5.90625 2.546875,-5.96875 c 0,-0.171875 -0.125,-0.265625 -0.296875,-0.265625 -0.03125,0 -0.3125,0 -0.390625,0.359375 l -0.390625,1.578125 -0.9375,0 c -0.203125,0 -0.296875,0 -0.296875,0.1875 0,0.125 0.078125,0.125 0.28125,0.125 l 0.875,0 C 0.671875,-1.15625 0.625,-0.984375 0.625,-0.8125 0.625,-0.265625 1,0.109375 1.546875,0.109375 2.5625,0.109375 3.125,-1.34375 3.125,-1.421875 3.125,-1.53125 3.046875,-1.53125 3.015625,-1.53125 2.921875,-1.53125 2.90625,-1.5 2.859375,-1.390625 2.4375,-0.34375 1.90625,-0.109375 1.5625,-0.109375 c -0.203125,0 -0.3125,-0.125 -0.3125,-0.453125 0,-0.25 0.03125,-0.3125 0.0625,-0.484375 z"
               id="path9188"
               inkscape:connector-curvature="0" />
          </symbol>
          <symbol
             overflow="visible"
             id="textext-bfceccdd-3"
             style="overflow:visible">
            <path
               style="stroke:none"
               d=""
               id="path9191"
               inkscape:connector-curvature="0" />
          </symbol>
          <symbol
             overflow="visible"
             id="textext-bfceccdd-4"
             style="overflow:visible">
            <path
               style="stroke:none"
               d="m 3.296875,2.390625 c 0,-0.03125 0,-0.046875 -0.171875,-0.21875 C 1.890625,0.921875 1.5625,-0.96875 1.5625,-2.5 c 0,-1.734375 0.375,-3.46875 1.609375,-4.703125 0.125,-0.125 0.125,-0.140625 0.125,-0.171875 0,-0.078125 -0.03125,-0.109375 -0.09375,-0.109375 -0.109375,0 -1,0.6875 -1.59375,1.953125 -0.5,1.09375 -0.625,2.203125 -0.625,3.03125 0,0.78125 0.109375,1.984375 0.65625,3.125 C 2.25,1.84375 3.09375,2.5 3.203125,2.5 c 0.0625,0 0.09375,-0.03125 0.09375,-0.109375 z"
               id="path9194"
               inkscape:connector-curvature="0" />
          </symbol>
          <symbol
             overflow="visible"
             id="textext-bfceccdd-5"
             style="overflow:visible">
            <path
               style="stroke:none"
               d="m 2.875,-2.5 c 0,-0.765625 -0.109375,-1.96875 -0.65625,-3.109375 -0.59375,-1.21875 -1.453125,-1.875 -1.546875,-1.875 -0.0625,0 -0.109375,0.046875 -0.109375,0.109375 0,0.03125 0,0.046875 0.1875,0.234375 0.984375,0.984375 1.546875,2.5625 1.546875,4.640625 0,1.71875 -0.359375,3.46875 -1.59375,4.71875 C 0.5625,2.34375 0.5625,2.359375 0.5625,2.390625 0.5625,2.453125 0.609375,2.5 0.671875,2.5 0.765625,2.5 1.671875,1.8125 2.25,0.546875 2.765625,-0.546875 2.875,-1.65625 2.875,-2.5 z"
               id="path9197"
               inkscape:connector-curvature="0" />
          </symbol>
        </g>
      </defs>
      <g
         id="textext-bfceccdd-6">
        <flowRoot
           xml:space="preserve"
           id="flowRoot60954"
           style="fill:black;stroke:none;stroke-opacity:1;stroke-width:1px;stroke-linejoin:miter;stroke-linecap:butt;fill-opacity:1;font-family:Sans;font-style:normal;font-weight:normal;font-size:11px;line-height:125%;letter-spacing:0px;word-spacing:0px"><flowRegion
             id="flowRegion60956"><rect
               id="rect60958"
               width="69.901352"
               height="25.944981"
               x="247.22778"
               y="307.67694" /></flowRegion><flowPara
             id="flowPara60960" /></flowRoot>        <g
           style="font-style:normal;font-variant:normal;font-weight:normal;font-stretch:normal;letter-spacing:normal;word-spacing:normal;text-anchor:start;fill:none;stroke:#000000;stroke-linecap:butt;stroke-linejoin:miter;stroke-miterlimit:10.43299961;stroke-opacity:1;stroke-dasharray:none;stroke-dashoffset:0"
           id="content"
           transform="matrix(1,0,0,-1,-2.1686166,844.5283)"
           xml:space="preserve"
           stroke-miterlimit="10.433"
           font-style="normal"
           font-variant="normal"
           font-weight="normal"
           font-stretch="normal"
           font-size-adjust="none"
           letter-spacing="normal"
           word-spacing="normal"
           ns0:text="$\\angle s(t)$"
           ns0:preamble=""><path
             style="fill:#000000;stroke-width:0"
             inkscape:connector-curvature="0"
             d="m 228.4,713.47 0.01,0.01 0,0.01 0.01,0 0,0.01 0,0.01 0.01,0 0,0.01 0,0 0.01,0.01 0,0 0,0.01 0,0 0.01,0.01 0,0 0,0.01 0,0 0,0 0,0.01 0,0 0.01,0 0,0.01 0,0 0,0 0,0.01 0,0 0,0.01 0,0 0,0.01 c 0,0.09 -0.07,0.17 -0.17,0.17 -0.09,0 -0.14,-0.06 -0.18,-0.13 l -3.44,-6 c -0.05,-0.08 -0.05,-0.1 -0.05,-0.14 0,-0.09 0.07,-0.17 0.17,-0.17 0.09,0 0.14,0.06 0.17,0.13 z"
             id="path3298" /><line
             style="stroke-width:0.33899999"
             x1="224.57001"
             y1="707.28998"
             x2="228.64999"
             y2="707.28998"
             id="line3300" /><path
             style="fill:#000000;stroke-width:0"
             inkscape:connector-curvature="0"
             d="m 233.67,710.84 -0.02,0 -0.03,0 -0.02,-0.01 -0.03,0 -0.02,-0.01 -0.03,-0.01 -0.02,0 -0.02,-0.01 -0.02,-0.01 -0.02,-0.01 -0.02,-0.02 -0.02,-0.01 -0.02,-0.01 -0.02,-0.02 -0.01,-0.01 -0.02,-0.02 -0.02,-0.01 -0.01,-0.02 -0.01,-0.01 -0.02,-0.02 -0.01,-0.02 -0.01,-0.02 -0.01,-0.02 -0.01,-0.02 -0.01,-0.02 0,-0.02 -0.01,-0.02 -0.01,-0.02 0,-0.02 0,-0.02 0,-0.02 0,-0.02 c 0,-0.14 0.08,-0.29 0.3,-0.29 0.22,0 0.46,0.17 0.46,0.56 0,0.45 -0.43,0.86 -1.18,0.86 -1.32,0 -1.68,-1.02 -1.68,-1.45 0,-0.78 0.73,-0.93 1.02,-0.99 0.52,-0.1 1.03,-0.21 1.03,-0.75 0,-0.26 -0.22,-1.1 -1.42,-1.1 -0.14,0 -0.9,0 -1.13,0.53 0.38,-0.05 0.63,0.25 0.63,0.53 0,0.23 -0.16,0.35 -0.37,0.35 -0.26,0 -0.56,-0.21 -0.56,-0.66 0,-0.57 0.57,-0.96 1.42,-0.96 1.61,0 2,1.2 2,1.64 0,0.36 -0.19,0.61 -0.31,0.73 -0.26,0.28 -0.55,0.33 -0.99,0.42 -0.36,0.08 -0.76,0.15 -0.76,0.59 0,0.29 0.24,0.9 1.12,0.9 0.24,0 0.74,-0.07 0.89,-0.46 z"
             id="path3302" /><path
             style="fill:#000000;stroke-width:0"
             inkscape:connector-curvature="0"
             d="m 237.74,704.74 0,0.01 0,0 0,0 0,0.01 0,0 0,0 0,0.01 0,0 0,0 0,0.01 -0.01,0 0,0.01 0,0 -0.01,0.01 0,0 -0.01,0.01 0,0.01 -0.01,0 0,0.01 0,0 -0.01,0.01 0,0 0,0 -0.01,0.01 0,0 -0.01,0.01 0,0 -0.01,0.01 0,0 -0.01,0.01 0,0 -0.01,0.01 0,0.01 -0.01,0 0,0.01 -0.01,0.01 -0.01,0 0,0.01 -0.01,0.01 -0.01,0 -0.01,0.01 0,0.01 c -1.25,1.25 -1.57,3.13 -1.57,4.65 0,1.73 0.38,3.46 1.61,4.7 0.12,0.12 0.12,0.14 0.12,0.17 0,0.07 -0.03,0.1 -0.09,0.1 -0.1,0 -1,-0.68 -1.59,-1.94 -0.5,-1.09 -0.62,-2.2 -0.62,-3.03 0,-0.78 0.11,-1.98 0.65,-3.1 0.6,-1.22 1.46,-1.87 1.56,-1.87 0.06,0 0.09,0.03 0.09,0.1 z"
             id="path3304" /><path
             style="fill:#000000;stroke-width:0"
             inkscape:connector-curvature="0"
             d="m 240.38,711.1 h 0.93 c 0.2,0 0.3,0 0.3,0.2 0,0.11 -0.1,0.11 -0.28,0.11 h -0.87 c 0.35,1.41 0.4,1.61 0.4,1.67 0,0.16 -0.12,0.26 -0.29,0.26 -0.03,0 -0.3,-0.01 -0.39,-0.35 l -0.39,-1.58 h -0.94 c -0.2,0 -0.3,0 -0.3,-0.19 0,-0.12 0.08,-0.12 0.28,-0.12 h 0.88 c -0.72,-2.82 -0.76,-2.99 -0.76,-3.17 0,-0.54 0.38,-0.91 0.92,-0.91 1.01,0 1.58,1.45 1.58,1.53 0,0.1 -0.08,0.1 -0.12,0.1 -0.09,0 -0.1,-0.04 -0.15,-0.14 -0.43,-1.04 -0.95,-1.28 -1.29,-1.28 -0.21,0 -0.31,0.13 -0.31,0.46 0,0.24 0.02,0.31 0.06,0.48 z"
             id="path3306" /><path
             style="fill:#000000;stroke-width:0"
             inkscape:connector-curvature="0"
             d="m 244.8,709.61 0,0.07 0,0.08 0,0.08 -0.01,0.08 0,0.17 -0.02,0.17 -0.01,0.18 -0.02,0.19 -0.03,0.2 -0.03,0.2 -0.04,0.2 -0.05,0.21 -0.05,0.21 -0.06,0.21 -0.07,0.21 -0.08,0.21 -0.04,0.11 -0.05,0.11 -0.05,0.1 -0.05,0.11 c -0.59,1.22 -1.45,1.87 -1.55,1.87 -0.06,0 -0.1,-0.04 -0.1,-0.1 0,-0.03 0,-0.05 0.19,-0.23 0.97,-0.99 1.54,-2.57 1.54,-4.64 0,-1.7 -0.37,-3.45 -1.6,-4.7 -0.13,-0.12 -0.13,-0.14 -0.13,-0.17 0,-0.06 0.04,-0.1 0.1,-0.1 0.1,0 1,0.68 1.58,1.94 0.51,1.09 0.63,2.19 0.63,3.03 z"
             id="path3308" /></g>        <g
           ns0:preamble=""
           ns0:text="Contribution from carrier"
           word-spacing="normal"
           letter-spacing="normal"
           font-size-adjust="none"
           font-stretch="normal"
           font-weight="normal"
           font-variant="normal"
           font-style="normal"
           stroke-miterlimit="10.433"
           xml:space="preserve"
           transform="matrix(1,0,0,-1,193.6685,839.74206)"
           id="g3672"
           style="font-style:normal;font-variant:normal;font-weight:normal;font-stretch:normal;letter-spacing:normal;word-spacing:normal;text-anchor:start;fill:#0000aa;stroke:#0000aa;stroke-linecap:butt;stroke-linejoin:miter;stroke-miterlimit:10.43299960999999954;stroke-opacity:1;stroke-dasharray:none;stroke-dashoffset:0;fill-opacity:1"><path
             id="path3674"
             d="m 223.99,710.52 0,-0.19 0.02,-0.19 0.02,-0.18 0.03,-0.18 0.04,-0.18 0.05,-0.18 0.06,-0.16 0.06,-0.17 0.07,-0.16 0.08,-0.16 0.08,-0.15 0.1,-0.15 0.1,-0.14 0.1,-0.13 0.11,-0.13 0.12,-0.13 0.12,-0.12 0.12,-0.11 0.14,-0.1 0.13,-0.1 0.14,-0.09 0.15,-0.09 0.15,-0.08 0.15,-0.07 0.16,-0.06 0.16,-0.06 0.16,-0.04 0.16,-0.04 0.17,-0.03 0.17,-0.03 0.17,-0.01 0.17,0 c 1.62,0 2.6,1.38 2.6,2.53 0,0.1 0,0.17 -0.13,0.17 -0.11,0 -0.11,-0.06 -0.12,-0.16 -0.08,-1.42 -1.15,-2.24 -2.23,-2.24 -0.61,0 -2.56,0.34 -2.56,3.3 0,2.97 1.94,3.31 2.55,3.31 1.09,0 1.97,-0.9 2.17,-2.35 0.02,-0.14 0.02,-0.17 0.16,-0.17 0.16,0 0.16,0.03 0.16,0.24 v 2.35 c 0,0.17 0,0.24 -0.11,0.24 -0.04,0 -0.08,0 -0.16,-0.12 l -0.5,-0.74 c -0.37,0.36 -0.87,0.86 -1.83,0.86 -1.86,0 -3.46,-1.58 -3.46,-3.61 z"
             inkscape:connector-curvature="0"
             style="fill:#0000aa;stroke-width:0;stroke:#0000aa;stroke-opacity:1;fill-opacity:1" /><path
             id="path3676"
             d="m 235.31,709.25 0,0.12 -0.01,0.12 -0.01,0.11 -0.02,0.12 -0.03,0.11 -0.03,0.11 -0.03,0.11 -0.04,0.1 -0.05,0.1 -0.04,0.1 -0.06,0.1 -0.06,0.09 -0.06,0.1 -0.06,0.08 -0.07,0.09 -0.08,0.08 -0.07,0.08 -0.08,0.07 -0.08,0.07 -0.09,0.06 -0.09,0.07 -0.09,0.05 -0.1,0.05 -0.09,0.05 -0.1,0.04 -0.11,0.04 -0.1,0.03 -0.11,0.03 -0.1,0.02 -0.11,0.01 -0.11,0.01 -0.12,0.01 -0.01,-0.22 c 0.44,0 0.87,-0.22 1.13,-0.65 0.26,-0.43 0.26,-1 0.26,-1.38 0,-0.36 0,-0.89 -0.22,-1.33 -0.22,-0.45 -0.66,-0.74 -1.16,-0.74 h 0 c -0.42,0 -0.86,0.21 -1.13,0.67 -0.25,0.44 -0.25,1.04 -0.25,1.4 0,0.39 0,0.92 0.24,1.36 0.27,0.46 0.74,0.67 1.13,0.67 l 0.01,0.22 c -1.24,0 -2.2,-1.09 -2.2,-2.33 0,-1.28 1.03,-2.23 2.19,-2.23 1.21,0 2.21,0.97 2.21,2.23 z"
             inkscape:connector-curvature="0"
             style="fill:#0000aa;stroke-width:0;stroke:#0000aa;stroke-opacity:1;fill-opacity:1" /><path
             id="path3678"
             d="m 236.7,710.54 v -2.66 c 0,-0.45 -0.11,-0.45 -0.77,-0.45 v -0.31 c 0.34,0.02 0.85,0.04 1.12,0.04 0.26,0 0.78,-0.02 1.11,-0.04 v 0.31 c -0.66,0 -0.77,0 -0.77,0.45 v 1.83 c 0,1.03 0.71,1.59 1.34,1.59 0.63,0 0.74,-0.54 0.74,-1.1 v -2.32 c 0,-0.45 -0.11,-0.45 -0.78,-0.45 v -0.31 c 0.35,0.02 0.86,0.04 1.13,0.04 0.25,0 0.77,-0.02 1.11,-0.04 v 0.31 c -0.52,0 -0.77,0 -0.78,0.3 v 1.9 c 0,0.85 0,1.16 -0.3,1.52 -0.14,0.17 -0.47,0.37 -1.05,0.37 -0.72,0 -1.19,-0.43 -1.47,-1.05 v 1.05 l -1.4,-0.11 v -0.31 c 0.69,0 0.77,-0.07 0.77,-0.56 z"
             inkscape:connector-curvature="0"
             style="fill:#0000aa;stroke-width:0;stroke:#0000aa;stroke-opacity:1;fill-opacity:1" /><path
             id="path3680"
             d="m 242.59,711.1 h 1.42 v 0.31 h -1.42 v 1.82 h -0.25 c -0.01,-0.81 -0.31,-1.87 -1.29,-1.91 v -0.22 h 0.85 v -2.74 c 0,-1.22 0.92,-1.34 1.28,-1.34 0.71,0 0.99,0.7 0.99,1.34 v 0.56 h -0.25 v -0.54 c 0,-0.74 -0.3,-1.12 -0.67,-1.12 -0.66,0 -0.66,0.91 -0.66,1.08 z"
             inkscape:connector-curvature="0"
             style="fill:#0000aa;stroke-width:0;stroke:#0000aa;stroke-opacity:1;fill-opacity:1" /><path
             id="path3682"
             d="m 246.4,710.42 v 1.1 l -1.38,-0.11 v -0.31 c 0.69,0 0.77,-0.07 0.77,-0.56 v -2.66 c 0,-0.45 -0.11,-0.45 -0.77,-0.45 v -0.31 c 0.39,0.02 0.85,0.04 1.13,0.04 0.4,0 0.87,0 1.26,-0.04 v 0.31 h -0.2 c -0.74,0 -0.76,0.11 -0.76,0.47 v 1.53 c 0,0.98 0.42,1.87 1.17,1.87 0.07,0 0.09,0 0.11,-0.01 -0.03,-0.01 -0.22,-0.13 -0.22,-0.39 0,-0.28 0.2,-0.43 0.42,-0.43 0.18,0 0.43,0.12 0.43,0.44 0,0.32 -0.31,0.61 -0.74,0.61 -0.72,0 -1.08,-0.67 -1.22,-1.1 z"
             inkscape:connector-curvature="0"
             style="fill:#0000aa;stroke-width:0;stroke:#0000aa;stroke-opacity:1;fill-opacity:1" /><path
             id="path3684"
             d="m 250.4,711.52 -1.39,-0.11 v -0.31 c 0.65,0 0.74,-0.06 0.74,-0.55 v -2.67 c 0,-0.45 -0.11,-0.45 -0.78,-0.45 v -0.31 c 0.32,0.02 0.85,0.04 1.09,0.04 0.35,0 0.7,-0.02 1.04,-0.04 v 0.31 c -0.66,0 -0.7,0.05 -0.7,0.44 z"
             inkscape:connector-curvature="0"
             style="fill:#0000aa;stroke-width:0;stroke:#0000aa;stroke-opacity:1;fill-opacity:1" /><path
             id="path3686"
             d="m 250.44,713.24 0,0.03 0,0.03 0,0.03 -0.01,0.03 -0.01,0.02 0,0.03 -0.01,0.03 -0.01,0.02 -0.01,0.02 -0.01,0.03 -0.02,0.02 -0.01,0.02 -0.02,0.02 -0.01,0.02 -0.02,0.02 -0.02,0.02 -0.02,0.01 -0.02,0.02 -0.02,0.01 -0.02,0.02 -0.02,0.01 -0.02,0.01 -0.02,0.01 -0.03,0.01 -0.02,0.01 -0.02,0.01 -0.03,0.01 -0.02,0 -0.03,0.01 -0.02,0 -0.03,0 -0.03,0 c -0.3,0 -0.52,-0.27 -0.52,-0.53 0,-0.26 0.22,-0.52 0.52,-0.52 0.28,0 0.53,0.21 0.53,0.52 z"
             inkscape:connector-curvature="0"
             style="fill:#0000aa;stroke-width:0;stroke:#0000aa;stroke-opacity:1;fill-opacity:1" /><path
             id="path3688"
             d="m 253.12,710.87 v 3.15 l -1.43,-0.11 v -0.31 c 0.69,0 0.77,-0.07 0.77,-0.55 v -5.93 h 0.25 c 0.01,0.02 0.09,0.15 0.36,0.62 0.15,-0.23 0.57,-0.72 1.3,-0.72 l -0.04,0.21 c -0.44,0 -0.8,0.24 -1.04,0.61 -0.14,0.21 -0.14,0.24 -0.14,0.42 h 0 v 2.04 c 0,0.19 0,0.2 0.11,0.36 0.39,0.56 0.94,0.64 1.17,0.64 0.45,0 0.81,-0.26 1.05,-0.64 0.26,-0.41 0.29,-0.97 0.29,-1.38 0,-0.37 -0.02,-0.96 -0.31,-1.41 -0.21,-0.31 -0.59,-0.64 -1.13,-0.64 l 0.04,-0.21 c 1.19,0 2.22,0.97 2.22,2.25 0,1.26 -0.97,2.25 -2.11,2.25 -0.77,0 -1.2,-0.47 -1.36,-0.65 z"
             inkscape:connector-curvature="0"
             style="fill:#0000aa;stroke-width:0;stroke:#0000aa;stroke-opacity:1;fill-opacity:1" /><path
             id="path3690"
             d="m 260.83,707.91 v -0.89 l 1.44,0.1 v 0.31 c -0.7,0 -0.78,0.07 -0.78,0.56 v 3.53 l -1.46,-0.11 v -0.31 c 0.7,0 0.77,-0.07 0.77,-0.56 v -1.77 c 0,-0.86 -0.47,-1.54 -1.2,-1.54 -0.83,0 -0.87,0.47 -0.87,0.99 v 3.3 l -1.47,-0.11 v -0.31 c 0.78,0 0.78,-0.03 0.78,-0.92 v -1.49 c 0,-0.77 0,-1.67 1.51,-1.67 0.56,0 1,0.27 1.28,0.89 z"
             inkscape:connector-curvature="0"
             style="fill:#0000aa;stroke-width:0;stroke:#0000aa;stroke-opacity:1;fill-opacity:1" /><path
             id="path3692"
             d="m 264.2,711.1 h 1.42 v 0.31 h -1.42 v 1.82 h -0.25 c -0.01,-0.81 -0.31,-1.87 -1.28,-1.91 v -0.22 h 0.84 v -2.74 c 0,-1.22 0.93,-1.34 1.29,-1.34 0.7,0 0.98,0.7 0.98,1.34 v 0.56 h -0.25 v -0.54 c 0,-0.74 -0.3,-1.12 -0.66,-1.12 -0.67,0 -0.67,0.91 -0.67,1.08 z"
             inkscape:connector-curvature="0"
             style="fill:#0000aa;stroke-width:0;stroke:#0000aa;stroke-opacity:1;fill-opacity:1" /><path
             id="path3694"
             d="m 268.11,711.52 -1.39,-0.11 v -0.31 c 0.65,0 0.74,-0.06 0.74,-0.55 v -2.67 c 0,-0.45 -0.11,-0.45 -0.78,-0.45 v -0.31 c 0.32,0.02 0.86,0.04 1.1,0.04 0.34,0 0.69,-0.02 1.03,-0.04 v 0.31 c -0.66,0 -0.7,0.05 -0.7,0.44 z"
             inkscape:connector-curvature="0"
             style="fill:#0000aa;stroke-width:0;stroke:#0000aa;stroke-opacity:1;fill-opacity:1" /><path
             id="path3696"
             d="m 268.15,713.24 0,0.03 0,0.03 0,0.03 -0.01,0.03 0,0.02 -0.01,0.03 -0.01,0.03 -0.01,0.02 -0.01,0.02 -0.01,0.03 -0.01,0.02 -0.02,0.02 -0.01,0.02 -0.02,0.02 -0.02,0.02 -0.01,0.02 -0.02,0.01 -0.02,0.02 -0.02,0.01 -0.02,0.02 -0.02,0.01 -0.03,0.01 -0.02,0.01 -0.02,0.01 -0.03,0.01 -0.02,0.01 -0.03,0.01 -0.02,0 -0.03,0.01 -0.02,0 -0.03,0 -0.02,0 c -0.31,0 -0.53,-0.27 -0.53,-0.53 0,-0.26 0.22,-0.52 0.53,-0.52 0.28,0 0.52,0.21 0.52,0.52 z"
             inkscape:connector-curvature="0"
             style="fill:#0000aa;stroke-width:0;stroke:#0000aa;stroke-opacity:1;fill-opacity:1" /><path
             id="path3698"
             d="m 273.81,709.25 -0.01,0.12 0,0.12 -0.02,0.11 -0.02,0.12 -0.02,0.11 -0.03,0.11 -0.04,0.11 -0.04,0.1 -0.04,0.1 -0.05,0.1 -0.05,0.1 -0.06,0.09 -0.06,0.1 -0.07,0.08 -0.07,0.09 -0.07,0.08 -0.08,0.08 -0.08,0.07 -0.08,0.07 -0.09,0.06 -0.09,0.07 -0.09,0.05 -0.09,0.05 -0.1,0.05 -0.1,0.04 -0.1,0.04 -0.1,0.03 -0.11,0.03 -0.11,0.02 -0.11,0.01 -0.11,0.01 -0.11,0.01 -0.01,-0.22 c 0.44,0 0.86,-0.22 1.12,-0.65 0.26,-0.43 0.26,-1 0.26,-1.38 0,-0.36 0,-0.89 -0.22,-1.33 -0.22,-0.45 -0.65,-0.74 -1.15,-0.74 h 0 c -0.43,0 -0.87,0.21 -1.14,0.67 -0.24,0.44 -0.24,1.04 -0.24,1.4 0,0.39 0,0.92 0.23,1.36 0.27,0.46 0.74,0.67 1.14,0.67 l 0.01,0.22 c -1.25,0 -2.21,-1.09 -2.21,-2.33 0,-1.28 1.03,-2.23 2.2,-2.23 1.2,0 2.21,0.97 2.21,2.23 z"
             inkscape:connector-curvature="0"
             style="fill:#0000aa;stroke-width:0;stroke:#0000aa;stroke-opacity:1;fill-opacity:1" /><path
             id="path3700"
             d="m 275.2,710.54 v -2.66 c 0,-0.45 -0.11,-0.45 -0.78,-0.45 v -0.31 c 0.35,0.02 0.86,0.04 1.13,0.04 0.25,0 0.77,-0.02 1.11,-0.04 v 0.31 c -0.67,0 -0.78,0 -0.78,0.45 v 1.83 c 0,1.03 0.71,1.59 1.35,1.59 0.62,0 0.73,-0.54 0.73,-1.1 v -2.32 c 0,-0.45 -0.11,-0.45 -0.77,-0.45 v -0.31 c 0.35,0.02 0.85,0.04 1.12,0.04 0.26,0 0.78,-0.02 1.11,-0.04 v 0.31 c -0.51,0 -0.76,0 -0.77,0.3 v 1.9 c 0,0.85 0,1.16 -0.31,1.52 -0.14,0.17 -0.47,0.37 -1.04,0.37 -0.73,0 -1.2,-0.43 -1.48,-1.05 v 1.05 l -1.4,-0.11 v -0.31 c 0.7,0 0.78,-0.07 0.78,-0.56 z"
             inkscape:connector-curvature="0"
             style="fill:#0000aa;stroke-width:0;stroke:#0000aa;stroke-opacity:1;fill-opacity:1" /><path
             id="path3702"
             d="m 284.7,711.41 v 1.15 c 0,0.87 0.47,1.35 0.91,1.35 0.03,0 0.18,0 0.33,-0.07 -0.12,-0.04 -0.3,-0.17 -0.3,-0.42 0,-0.22 0.16,-0.42 0.43,-0.42 0.29,0 0.44,0.2 0.44,0.43 0,0.37 -0.37,0.7 -0.9,0.7 -0.69,0 -1.54,-0.53 -1.54,-1.58 v -1.14 h -0.79 v -0.31 h 0.79 v -3.22 c 0,-0.45 -0.11,-0.45 -0.78,-0.45 v -0.31 c 0.39,0.02 0.86,0.04 1.14,0.04 0.4,0 0.86,0 1.26,-0.04 v 0.31 h -0.21 c -0.73,0 -0.75,0.11 -0.75,0.47 v 3.2 h 1.13 v 0.31 z"
             inkscape:connector-curvature="0"
             style="fill:#0000aa;stroke-width:0;stroke:#0000aa;stroke-opacity:1;fill-opacity:1" /><path
             id="path3704"
             d="m 287.66,710.42 v 1.1 l -1.38,-0.11 v -0.31 c 0.7,0 0.77,-0.07 0.77,-0.56 v -2.66 c 0,-0.45 -0.1,-0.45 -0.77,-0.45 v -0.31 c 0.39,0.02 0.85,0.04 1.13,0.04 0.4,0 0.87,0 1.27,-0.04 v 0.31 h -0.21 c -0.74,0 -0.76,0.11 -0.76,0.47 v 1.53 c 0,0.98 0.42,1.87 1.18,1.87 0.06,0 0.09,0 0.1,-0.01 -0.03,-0.01 -0.22,-0.13 -0.22,-0.39 0,-0.28 0.21,-0.43 0.42,-0.43 0.18,0 0.43,0.12 0.43,0.44 0,0.32 -0.31,0.61 -0.73,0.61 -0.73,0 -1.09,-0.67 -1.23,-1.1 z"
             inkscape:connector-curvature="0"
             style="fill:#0000aa;stroke-width:0;stroke:#0000aa;stroke-opacity:1;fill-opacity:1" /><path
             id="path3706"
             d="m 294.59,709.25 0,0.12 -0.01,0.12 -0.02,0.11 -0.02,0.12 -0.02,0.11 -0.03,0.11 -0.04,0.11 -0.04,0.1 -0.04,0.1 -0.05,0.1 -0.05,0.1 -0.06,0.09 -0.06,0.1 -0.07,0.08 -0.07,0.09 -0.07,0.08 -0.08,0.08 -0.08,0.07 -0.08,0.07 -0.09,0.06 -0.09,0.07 -0.09,0.05 -0.09,0.05 -0.1,0.05 -0.1,0.04 -0.1,0.04 -0.1,0.03 -0.11,0.03 -0.11,0.02 -0.11,0.01 -0.11,0.01 -0.11,0.01 -0.01,-0.22 c 0.44,0 0.86,-0.22 1.12,-0.65 0.26,-0.43 0.26,-1 0.26,-1.38 0,-0.36 0,-0.89 -0.22,-1.33 -0.21,-0.45 -0.65,-0.74 -1.15,-0.74 h 0 c -0.43,0 -0.87,0.21 -1.13,0.67 -0.25,0.44 -0.25,1.04 -0.25,1.4 0,0.39 0,0.92 0.23,1.36 0.27,0.46 0.74,0.67 1.14,0.67 l 0.01,0.22 c -1.24,0 -2.21,-1.09 -2.21,-2.33 0,-1.28 1.04,-2.23 2.2,-2.23 1.2,0 2.21,0.97 2.21,2.23 z"
             inkscape:connector-curvature="0"
             style="fill:#0000aa;stroke-width:0;stroke:#0000aa;stroke-opacity:1;fill-opacity:1" /><path
             id="path3708"
             d="m 295.98,710.54 v -2.66 c 0,-0.45 -0.11,-0.45 -0.78,-0.45 v -0.31 c 0.35,0.02 0.86,0.04 1.13,0.04 0.25,0 0.77,-0.02 1.11,-0.04 v 0.31 c -0.67,0 -0.78,0 -0.78,0.45 v 1.83 c 0,1.03 0.71,1.59 1.35,1.59 0.62,0 0.73,-0.54 0.73,-1.1 v -2.32 c 0,-0.45 -0.11,-0.45 -0.77,-0.45 v -0.31 c 0.35,0.02 0.85,0.04 1.12,0.04 0.26,0 0.78,-0.02 1.12,-0.04 v 0.31 c -0.67,0 -0.78,0 -0.78,0.45 v 1.83 c 0,1.03 0.71,1.59 1.34,1.59 0.63,0 0.74,-0.54 0.74,-1.1 v -2.32 c 0,-0.45 -0.11,-0.45 -0.78,-0.45 v -0.31 c 0.35,0.02 0.86,0.04 1.13,0.04 0.26,0 0.77,-0.02 1.11,-0.04 v 0.31 c -0.52,0 -0.76,0 -0.77,0.3 v 1.9 c 0,0.85 0,1.16 -0.31,1.52 -0.14,0.17 -0.47,0.37 -1.05,0.37 -0.83,0 -1.27,-0.6 -1.44,-0.98 -0.14,0.87 -0.88,0.98 -1.32,0.98 -0.73,0 -1.2,-0.43 -1.47,-1.05 v 1.05 l -1.41,-0.11 v -0.31 c 0.7,0 0.78,-0.07 0.78,-0.56 z"
             inkscape:connector-curvature="0"
             style="fill:#0000aa;stroke-width:0;stroke:#0000aa;stroke-opacity:1;fill-opacity:1" /><path
             id="path3710"
             d="m 307.68,709.29 0,0.08 0,0.07 0,0.07 0.01,0.07 0,0.07 0.01,0.07 0,0.06 0.01,0.06 0.01,0.06 0.01,0.06 0.01,0.06 0.02,0.06 0.02,0.11 0.03,0.1 0.04,0.1 0.03,0.09 0.04,0.09 0.04,0.08 0.05,0.07 0.04,0.07 0.05,0.07 0.05,0.06 0.05,0.05 0.05,0.05 0.06,0.05 0.05,0.04 0.06,0.04 0.05,0.03 0.06,0.03 0.06,0.03 0.05,0.02 0.06,0.02 0.06,0.01 0.05,0.02 0.06,0.01 0.05,0 0.05,0.01 0.05,0 c 0.09,0 0.72,-0.01 1.06,-0.37 -0.4,-0.03 -0.46,-0.33 -0.46,-0.46 0,-0.26 0.18,-0.45 0.46,-0.45 0.25,0 0.45,0.16 0.45,0.46 0,0.68 -0.75,1.07 -1.52,1.07 -1.24,0 -2.16,-1.08 -2.16,-2.31 0,-1.27 0.99,-2.25 2.14,-2.25 1.33,0 1.65,1.19 1.65,1.29 0,0.1 -0.1,0.1 -0.13,0.1 -0.09,0 -0.11,-0.04 -0.13,-0.1 -0.28,-0.93 -0.93,-1.05 -1.3,-1.05 -0.53,0 -1.4,0.43 -1.4,2.03 z"
             inkscape:connector-curvature="0"
             style="fill:#0000aa;stroke-width:0;stroke:#0000aa;stroke-opacity:1;fill-opacity:1" /><path
             id="path3712"
             d="m 314.25,707.88 0.01,-0.04 0,-0.03 0.01,-0.04 0.01,-0.04 0.01,-0.04 0.01,-0.03 0.01,-0.04 0.02,-0.03 0.01,-0.04 0.02,-0.03 0.01,-0.04 0.02,-0.03 0.02,-0.03 0.02,-0.04 0.03,-0.03 0.02,-0.03 0.03,-0.02 0.02,-0.03 0.03,-0.03 0.03,-0.02 0.03,-0.02 0.03,-0.03 0.03,-0.02 0.04,-0.01 0.03,-0.02 0.04,-0.01 0.03,-0.02 0.04,-0.01 0.04,0 0.04,-0.01 0.05,0 0.04,0 c 0.21,0 0.82,0.13 0.82,0.94 v 0.56 h -0.25 v -0.56 c 0,-0.58 -0.25,-0.64 -0.36,-0.64 -0.33,0 -0.37,0.45 -0.37,0.5 v 1.99 c 0,0.41 0,0.8 -0.36,1.17 -0.39,0.39 -0.88,0.55 -1.36,0.55 -0.82,0 -1.5,-0.47 -1.5,-1.13 0,-0.29 0.2,-0.46 0.45,-0.46 0.28,0 0.46,0.19 0.46,0.45 0,0.12 -0.05,0.45 -0.51,0.46 0.27,0.35 0.76,0.46 1.08,0.46 0.49,0 1.05,-0.39 1.05,-1.27 v -0.37 -0.21 -0.99 c 0,-0.95 -0.71,-1.29 -1.16,-1.29 -0.49,0 -0.9,0.35 -0.9,0.85 0,0.54 0.42,1.37 2.06,1.43 h 0 v 0.21 c -0.5,-0.03 -1.2,-0.06 -1.83,-0.36 -0.74,-0.34 -0.99,-0.85 -0.99,-1.29 0,-0.81 0.96,-1.05 1.59,-1.05 0.66,0 1.11,0.39 1.3,0.86 z"
             inkscape:connector-curvature="0"
             style="fill:#0000aa;stroke-width:0;stroke:#0000aa;stroke-opacity:1;fill-opacity:1" /><path
             id="path3714"
             d="m 317.58,710.42 v 1.1 l -1.38,-0.11 v -0.31 c 0.7,0 0.78,-0.07 0.78,-0.56 v -2.66 c 0,-0.45 -0.11,-0.45 -0.78,-0.45 v -0.31 c 0.39,0.02 0.86,0.04 1.13,0.04 0.4,0 0.87,0 1.27,-0.04 v 0.31 h -0.21 c -0.74,0 -0.76,0.11 -0.76,0.47 v 1.53 c 0,0.98 0.42,1.87 1.18,1.87 0.07,0 0.09,0 0.11,-0.01 -0.03,-0.01 -0.23,-0.13 -0.23,-0.39 0,-0.28 0.21,-0.43 0.42,-0.43 0.18,0 0.43,0.12 0.43,0.44 0,0.32 -0.31,0.61 -0.73,0.61 -0.73,0 -1.09,-0.67 -1.23,-1.1 z"
             inkscape:connector-curvature="0"
             style="fill:#0000aa;stroke-width:0;stroke:#0000aa;stroke-opacity:1;fill-opacity:1" /><path
             id="path3716"
             d="m 321.48,710.42 v 1.1 l -1.38,-0.11 v -0.31 c 0.7,0 0.78,-0.07 0.78,-0.56 v -2.66 c 0,-0.45 -0.11,-0.45 -0.78,-0.45 v -0.31 c 0.39,0.02 0.86,0.04 1.14,0.04 0.4,0 0.86,0 1.26,-0.04 v 0.31 h -0.21 c -0.74,0 -0.75,0.11 -0.75,0.47 v 1.53 c 0,0.98 0.41,1.87 1.17,1.87 0.07,0 0.09,0 0.11,-0.01 -0.03,-0.01 -0.23,-0.13 -0.23,-0.39 0,-0.28 0.21,-0.43 0.43,-0.43 0.18,0 0.43,0.12 0.43,0.44 0,0.32 -0.31,0.61 -0.74,0.61 -0.73,0 -1.09,-0.67 -1.23,-1.1 z"
             inkscape:connector-curvature="0"
             style="fill:#0000aa;stroke-width:0;stroke:#0000aa;stroke-opacity:1;fill-opacity:1" /><path
             id="path3718"
             d="m 325.49,711.52 -1.4,-0.11 v -0.31 c 0.65,0 0.74,-0.06 0.74,-0.55 v -2.67 c 0,-0.45 -0.11,-0.45 -0.78,-0.45 v -0.31 c 0.32,0.02 0.86,0.04 1.1,0.04 0.35,0 0.7,-0.02 1.03,-0.04 v 0.31 c -0.65,0 -0.69,0.05 -0.69,0.44 z"
             inkscape:connector-curvature="0"
             style="fill:#0000aa;stroke-width:0;stroke:#0000aa;stroke-opacity:1;fill-opacity:1" /><path
             id="path3720"
             d="m 325.53,713.24 0,0.03 -0.01,0.03 0,0.03 0,0.03 -0.01,0.02 -0.01,0.03 -0.01,0.03 -0.01,0.02 -0.01,0.02 -0.01,0.03 -0.01,0.02 -0.02,0.02 -0.01,0.02 -0.02,0.02 -0.01,0.02 -0.02,0.02 -0.02,0.01 -0.02,0.02 -0.02,0.01 -0.02,0.02 -0.02,0.01 -0.02,0.01 -0.03,0.01 -0.02,0.01 -0.02,0.01 -0.03,0.01 -0.02,0.01 -0.03,0 -0.02,0.01 -0.03,0 -0.02,0 -0.03,0 c -0.31,0 -0.53,-0.27 -0.53,-0.53 0,-0.26 0.22,-0.52 0.53,-0.52 0.28,0 0.53,0.21 0.53,0.52 z"
             inkscape:connector-curvature="0"
             style="fill:#0000aa;stroke-width:0;stroke:#0000aa;stroke-opacity:1;fill-opacity:1" /><path
             id="path3722"
             d="m 327.6,709.42 0.01,0.21 c 0.06,1.48 0.89,1.73 1.23,1.73 1.03,0 1.13,-1.34 1.13,-1.73 h -2.36 l -0.01,-0.21 h 2.77 c 0.22,0 0.25,0 0.25,0.21 0,0.98 -0.53,1.95 -1.78,1.95 -1.15,0 -2.07,-1.03 -2.07,-2.27 0,-1.33 1.05,-2.29 2.19,-2.29 1.21,0 1.66,1.1 1.66,1.29 0,0.1 -0.08,0.12 -0.13,0.12 -0.09,0 -0.11,-0.06 -0.13,-0.14 -0.34,-1.03 -1.24,-1.03 -1.34,-1.03 -0.5,0 -0.89,0.3 -1.12,0.67 -0.3,0.48 -0.3,1.13 -0.3,1.49 z"
             inkscape:connector-curvature="0"
             style="fill:#0000aa;stroke-width:0;stroke:#0000aa;stroke-opacity:1;fill-opacity:1" /><path
             id="path3724"
             d="m 332.58,710.42 v 1.1 l -1.38,-0.11 v -0.31 c 0.7,0 0.78,-0.07 0.78,-0.56 v -2.66 c 0,-0.45 -0.11,-0.45 -0.78,-0.45 v -0.31 c 0.39,0.02 0.85,0.04 1.13,0.04 0.4,0 0.87,0 1.27,-0.04 v 0.31 h -0.21 c -0.74,0 -0.76,0.11 -0.76,0.47 v 1.53 c 0,0.98 0.42,1.87 1.18,1.87 0.07,0 0.09,0 0.11,-0.01 -0.03,-0.01 -0.23,-0.13 -0.23,-0.39 0,-0.28 0.21,-0.43 0.42,-0.43 0.18,0 0.43,0.12 0.43,0.44 0,0.32 -0.31,0.61 -0.73,0.61 -0.73,0 -1.09,-0.67 -1.23,-1.1 z"
             inkscape:connector-curvature="0"
             style="fill:#0000aa;stroke-width:0;stroke:#0000aa;stroke-opacity:1;fill-opacity:1" /></g>      </g>
    </g>
    <g
       id="g9626"
       ns0:preamble=""
       ns0:text="$t$"
       transform="translate(364.39452,276.26752)">
      <defs
         id="defs9628">
        <g
           id="g9630">
          <symbol
             id="textext-e0eb85d6-0"
             overflow="visible"
             style="overflow:visible">
            <path
               id="path9633"
               d=""
               style="stroke:none"
               inkscape:connector-curvature="0" />
          </symbol>
          <symbol
             id="textext-e0eb85d6-1"
             overflow="visible"
             style="overflow:visible">
            <path
               id="path9636"
               d="m 2.046875,-3.984375 0.9375,0 c 0.203125,0 0.3125,0 0.3125,-0.203125 0,-0.109375 -0.109375,-0.109375 -0.28125,-0.109375 l -0.875,0 C 2.5,-5.71875 2.546875,-5.90625 2.546875,-5.96875 c 0,-0.171875 -0.125,-0.265625 -0.296875,-0.265625 -0.03125,0 -0.3125,0 -0.390625,0.359375 l -0.390625,1.578125 -0.9375,0 c -0.203125,0 -0.296875,0 -0.296875,0.1875 0,0.125 0.078125,0.125 0.28125,0.125 l 0.875,0 C 0.671875,-1.15625 0.625,-0.984375 0.625,-0.8125 0.625,-0.265625 1,0.109375 1.546875,0.109375 2.5625,0.109375 3.125,-1.34375 3.125,-1.421875 3.125,-1.53125 3.046875,-1.53125 3.015625,-1.53125 2.921875,-1.53125 2.90625,-1.5 2.859375,-1.390625 2.4375,-0.34375 1.90625,-0.109375 1.5625,-0.109375 c -0.203125,0 -0.3125,-0.125 -0.3125,-0.453125 0,-0.25 0.03125,-0.3125 0.0625,-0.484375 z"
               style="stroke:none"
               inkscape:connector-curvature="0" />
          </symbol>
        </g>
      </defs>
      <g
         id="textext-e0eb85d6-2">
        <g
           id="g9639"
           style="fill:#000000;fill-opacity:1">
          <use
             id="use9641"
             y="134.765"
             x="223.43201"
             xlink:href="#textext-e0eb85d6-1"
             width="744.09448"
             height="1052.3622" />
        </g>
      </g>
    </g>
  </g>
  <g
     inkscape:groupmode="layer"
     id="layer13"
     inkscape:label="unwrapped">
    <path
       id="path16641"
       title="cos(x)"
       d=" M 318.73611 407.434146 C 319.608465556 407.433930927 320.480821111 407.217081918 321.353176667 406.794323201 C 322.225532222 406.371564485 323.097887778 405.742262845 323.970243333 404.93874608 C 324.842598889 404.135229314 325.714954444 403.156745845 326.58731 402.052708418 C 327.459665556 400.948670991 328.332021111 399.718714865 329.204376667 398.424403486 C 330.076732222 397.130092107 330.949087778 395.771483993 331.821443333 394.416145703 C 332.693798889 393.060807413 333.566154444 391.70921488 334.43851 390.428190731 C 335.310865556 389.147166582 336.183221111 387.937556638 337.055576667 386.858766838 C 337.927932222 385.779977037 338.800287778 384.833138628 339.672643333 384.064308714 C 340.544998889 383.295478801 341.417354444 382.705961093 342.28971 382.323864702 C 343.162065556 381.941768312 344.034421111 381.768439226 344.906776667 381.81123165 C 345.779132222 381.854024073 346.651487778 382.114191865 347.523843333 382.577599947 C 348.396198889 383.041008029 349.268554444 383.708692924 350.14091 384.54644177 C 351.013265556 385.384190615 351.885621111 386.392719092 352.757976667 387.521152974 C 353.630332222 388.649586857 354.502687778 389.898249516 355.375043333 391.20468555 C 356.247398889 392.511121584 357.119754444 393.875229764 357.99211 395.229210168 C 358.864465556 396.583190572 359.736821111 397.926527479 360.609176667 399.192846797 C 361.481532222 400.459166114 362.353887778 401.647589129 363.226243333 402.699795543 C 364.098598889 403.752001958 364.970954444 404.666837814 365.84331 405.399860346 C 366.715665556 406.132882877 367.588021111 406.682778112 368.460376667 407.023418769 C 369.332732222 407.364059426 370.205087778 407.494102729 371.077443333 407.408345897 C 371.949798889 407.322589065 372.822154444 407.019794604 373.69451 406.516203769 C 374.566865556 406.012612934 375.439221111 405.307217086 376.311576667 404.436079702 C 377.183932222 403.564942319 378.056287778 402.527384337 378.928643333 401.375690237 C 379.800998889 400.223996137 380.673354444 398.957884242 381.54571 397.640639023 C 382.418065556 396.323393804 383.290421111 394.955159099 384.162776667 393.603899925 C 385.035132222 392.252640751 385.907487778 390.918912095 386.779843333 389.668572686 C 387.652198889 388.418233276 388.524554444 387.252193831 389.39691 386.227630285 C 390.269265556 385.203066739 391.141621111 384.321154598 392.013976667 383.62467754 C 392.886332222 382.928200482 393.758687778 382.418481419 394.631043333 382.119639492 C 395.503398889 381.820797565 396.375754444 381.734170987 397.24811 381.862805877 C 398.120465556 381.991440767 398.992821111 382.336557009 399.865176667 382.879823524 C 400.737532222 383.423090039 401.609887778 384.165486566 402.482243333 385.069135326 C 403.354598889 385.972784086 404.226954444 387.03832684 405.09931 388.2121215 C 405.971665556 389.38591616 406.844021111 390.668202423 407.716376667 391.994930472 C 408.588732222 393.321658522 409.461087778 394.692642055 410.333443333 396.039819396 C 411.205798889 397.386996737 412.078154444 398.709774189 412.95051 399.942874705 C 413.822865556 401.175975221 414.695221111 402.318456993 415.567576667 403.314346022 C 416.439932222 404.310235051 417.312287778 405.158335466 418.184643333 405.817565757 C 419.056998889 406.476796047 419.929354444 406.945825695 420.80171 407.202567984 C 421.674065556 407.459310273 422.546421111 407.502432901 423.418776667 407.331049477 C 424.291132222 407.159666053 425.163487778 406.772575532 426.035843333 406.19018036 C 426.908198889 405.607785189 427.780554444 404.829135513 428.65291 403.893885275 C 429.525265556 402.958635036 430.397621111 401.866180421 431.269976667 400.671467113 C 432.142332222 399.476753806 433.014687778 398.179584327 433.887043333 396.84470935 C 434.759398889 395.509834374 435.631754444 394.137482476 436.50411 392.795743461 C 437.376465556 391.454004447 438.248821111 390.143510123 439.121176667 388.928890129 C 439.993532222 387.714270134 440.865887778 386.596496418 441.738243333 385.630284682 C 442.610598889 384.664072945 443.482954444 383.85063822 444.35531 383.229318486 C 445.227665556 382.607998752 446.100021111 382.180130792 446.972376667 381.96574666 C 447.844732222 381.751362527 448.717087778 381.75178727 449.589443333 381.96574666 C 450.461798889 382.179706049 451.334154444 382.608381081 452.20651 383.229318486 C 453.078865556 383.850255891 453.951221111 384.664374682 454.823576667 385.630284682 C 455.695932222 386.596194681 456.568287778 387.714461148 457.440643333 388.928890129 C 458.312998889 390.143319109 459.185354444 391.454065663 460.05771 392.795743461 C 460.930065556 394.13742126 461.802421111 395.509759679 462.674776667 396.84470935 C 463.547132222 398.179659021 464.419487778 399.47655066 465.291843333 400.671467113 C 466.164198889 401.866383567 467.036554444 402.958323725 467.90891 403.893885275 C 468.781265556 404.829446825 469.653621111 405.607396799 470.525976667 406.19018036 C 471.398332222 406.772963922 472.270687778 407.159239367 473.143043333 407.331049477 C 474.015398889 407.502859586 474.887754444 407.4588879 475.76011 407.202567984 C 476.632465556 406.946248068 477.504821111 406.476420164 478.377176667 405.817565757 C 479.249532222 405.158711349 480.121887778 404.309943193 480.994243333 403.314346022 C 481.866598889 402.318748851 482.738954444 401.175796531 483.61131 399.942874705 C 484.483665556 398.709952879 485.356021111 397.386949061 486.228376667 396.039819396 C 487.100732222 394.692689731 487.973087778 393.321746618 488.845443333 391.994930472 C 489.717798889 390.668114327 490.590154444 389.386131233 491.46251 388.2121215 C 492.334865556 387.038111767 493.207221111 385.973104659 494.079576667 385.069135326 C 494.951932222 384.165165994 495.824287778 383.4234841 496.696643333 382.879823524 C 497.568998889 382.336162949 498.441354444 381.991868965 499.31371 381.862805877 C 500.186065556 381.733742788 501.058421111 381.821217142 501.930776667 382.119639492 C 502.803132222 382.418061842 503.675487778 382.928569541 504.547843333 383.62467754 C 505.420198889 384.32078554 506.292554444 385.203348425 507.16491 386.227630285 C 508.037265556 387.251912146 508.909621111 388.418399461 509.781976667 389.668572686 C 510.654332222 390.91874591 511.526687778 392.25267484 512.399043333 393.603899925 C 513.271398889 394.95512501 514.143754444 396.323292394 515.01611 397.640639023 C 515.888465556 398.957985652 516.760821111 400.223769353 517.633176667 401.375690237 C 518.505532222 402.527611121 519.377887778 403.564612808 520.250243333 404.436079702 C 521.122598889 405.307546597 521.994954444 406.0122136 522.86731 406.516203769 C 523.739665556 407.020193938 524.612021111 407.322159785 525.484376667 407.408345897 C 526.356732222 407.494532009 527.229087778 407.363643066 528.101443333 407.023418769 C 528.973798889 406.683194471 529.846154444 406.132521015 530.71851 405.399860346 C 531.590865556 404.667199676 532.463221111 403.751730728 533.335576667 402.699795543 C 534.207932222 401.647860359 535.080287778 400.459012601 535.952643333 399.192846797 C 536.824998889 397.926680993 537.697354444 396.583170104 538.56971 395.229210168 C 539.442065556 393.875250231 540.314421111 392.511236206 541.186776667 391.20468555 C 542.059132222 389.898134893 542.931487778 388.649825123 543.803843333 387.521152974 C 544.676198889 386.392480825 545.548554444 385.384528733 546.42091 384.54644177 C 547.293265556 383.708354806 548.165621111 383.041412234 549.037976667 382.577599947 C 549.910332222 382.11378766 550.782687778 381.854454003 551.655043333 381.81123165 C 552.527398889 381.768009297 553.399754444 381.942181034 554.27211 382.323864702 C 555.144465556 382.705548371 556.016821111 383.295833102 556.889176667 384.064308714 C 557.761532222 384.832784327 558.633887778 385.780237538 559.506243333 386.858766838 C 560.378598889 387.937296137 561.250954444 389.147307269 562.12331 390.428190731 C 562.995665556 391.709074193 563.868021111 393.060814238 564.740376667 394.416145703 C 565.612732222 395.771477168 566.485087778 397.129964388 567.357443333 398.424403486 C 568.229798889 399.718842584 569.102154444 400.948421482 569.97451 402.052708418 C 570.846865556 403.156995354 571.719221111 404.13488293 572.591576667 404.93874608 C 573.463932222 405.742609229 574.336287778 406.371155815 575.208643333 406.794323201 C 576.080998889 407.217490587 576.953354444 407.433930927 577.82571 407.434146"
       style="fill:none;stroke:#000000;stroke-width:1.75000000000000000;stroke-linecap:round;stroke-miterlimit:4;stroke-opacity:1;stroke-dasharray:none" />
    <path
       id="path60744"
       title="0.25*x-0.75+cos(x)"
       d=" M 318.73611 407.429112254 C 319.608465556 407.077005191 320.480821111 406.499948965 321.353176667 405.709079439 C 322.225532222 404.918209913 323.097887778 403.912869568 323.970243333 402.726627062 C 324.842598889 401.540384556 325.714954444 400.172459466 326.58731 398.674161182 C 327.459665556 397.175862898 328.332021111 395.54681268 329.204376667 393.850937012 C 330.076732222 392.155061344 330.949087778 390.392420989 331.821443333 388.633175967 C 332.693798889 386.873930945 333.566154444 385.118575455 334.43851 383.436497031 C 335.310865556 381.754418607 336.183221111 380.146495535 337.055576667 378.674413977 C 337.927932222 377.202332419 338.800287778 375.867267044 339.672643333 374.717042803 C 340.544998889 373.566818561 341.417354444 372.602789206 342.28971 371.854142779 C 343.162065556 371.105496352 344.034421111 370.573630508 344.906776667 370.266181732 C 345.779132222 369.958732956 346.651487778 369.877003235 347.523843333 370.006314933 C 348.396198889 370.135626632 349.268554444 370.477056058 350.14091 370.995077131 C 351.013265556 371.513098204 351.885621111 372.208454075 352.757976667 373.028317773 C 353.630332222 373.848181471 354.502687778 374.792888781 355.375043333 375.797587025 C 356.247398889 376.802285269 357.119754444 377.866869335 357.99211 378.920936881 C 358.864465556 379.975004427 359.736821111 381.01801994 360.609176667 381.981061637 C 361.481532222 382.944103334 362.353887778 383.826258774 363.226243333 384.566969107 C 364.098598889 385.307679439 364.970954444 385.905746413 365.84331 386.315021381 C 366.715665556 386.724296349 367.588021111 386.943414903 368.460376667 386.9452469 C 369.332732222 386.947078896 370.205087778 386.730230018 371.077443333 386.289297781 C 371.949798889 385.848365543 372.822154444 385.182064954 373.69451 384.307260668 C 374.566865556 383.432456382 375.439221111 382.348101045 376.311576667 381.091642387 C 377.183932222 379.835183729 378.056287778 378.405916622 378.928643333 376.858132422 C 379.800998889 375.310348222 380.673354444 373.643754441 381.54571 371.924064646 C 382.418065556 370.20437485 383.290421111 368.4317384 384.162776667 366.676729065 C 385.035132222 364.921719731 385.907487778 363.184913802 386.779843333 361.534697914 C 387.652198889 359.884482025 388.524554444 358.321801852 389.39691 356.906027956 C 390.269265556 355.490254061 391.141621111 354.222607069 392.013976667 353.14751286 C 392.886332222 352.07241865 393.758687778 351.191250911 394.631043333 350.529054569 C 395.503398889 349.866858227 396.375754444 349.425022859 397.24811 349.206711507 C 398.120465556 348.988400155 398.992821111 348.994879527 399.865176667 349.207114926 C 400.737532222 349.419350325 401.609887778 349.838359098 402.482243333 350.424809573 C 403.354598889 351.011260048 404.226954444 351.765818619 405.09931 352.632784213 C 405.971665556 353.499749806 406.844021111 354.479371321 407.716376667 355.505140464 C 408.588732222 356.530909608 409.461087778 357.602632928 410.333443333 358.649636285 C 411.205798889 359.696639641 412.078154444 360.718306549 412.95051 361.646854381 C 413.822865556 362.575402213 414.695221111 363.409853012 415.567576667 364.092084285 C 416.439932222 364.774315559 417.312287778 365.303085535 418.184643333 365.635735837 C 419.056998889 365.968386139 419.929354444 366.10353518 420.80171 366.018248472 C 421.674065556 365.932961764 422.546421111 365.625855867 423.418776667 365.096010366 C 424.291132222 364.566164865 425.163487778 363.812332615 426.035843333 362.855699185 C 426.908198889 361.899065755 427.780554444 360.738644832 428.65291 359.415612425 C 429.525265556 358.092580019 430.397621111 356.606309139 431.269976667 355.013854492 C 432.142332222 353.421399845 433.014687778 351.722556373 433.887043333 349.984560123 C 434.759398889 348.246563873 435.631754444 346.469652197 436.50411 344.724528441 C 437.376465556 342.979404686 438.248821111 341.26672491 439.121176667 339.653599483 C 439.993532222 338.040474056 440.865887778 336.527912232 441.738243333 335.172729909 C 442.610598889 333.817547586 443.482954444 332.621006432 444.35531 331.623954368 C 445.227665556 330.626902303 446.100021111 329.830727422 446.972376667 329.256230683 C 447.844732222 328.681733944 448.717087778 328.330291256 449.589443333 328.20057948 C 450.461798889 328.070867704 451.334154444 328.164113167 452.20651 328.457000758 C 453.078865556 328.749888349 453.951221111 329.243372357 454.823576667 329.894473892 C 455.695932222 330.545575428 456.568287778 331.354881447 457.440643333 332.26404106 C 458.312998889 333.173200673 459.185354444 334.182374891 460.05771 335.223667612 C 460.930065556 336.264960333 461.802421111 337.338090545 462.674776667 338.372396887 C 463.547132222 339.406703229 464.419487778 340.401490728 465.291843333 341.29038885 C 466.164198889 342.179286971 467.036554444 342.961256178 467.90891 343.580844376 C 468.781265556 344.200432574 469.653621111 344.65635947 470.525976667 344.909628729 C 471.398332222 345.162897988 472.270687778 345.212116408 473.143043333 345.038637504 C 474.015398889 344.865158599 474.887754444 344.467615379 475.76011 343.849573203 C 476.632465556 343.231531027 477.504821111 342.391785621 478.377176667 341.355758161 C 479.249532222 340.319730701 480.121887778 339.086499885 480.994243333 337.700804203 C 481.866598889 336.315108522 482.738954444 334.776401645 483.61131 333.144271892 C 484.483665556 331.51214214 485.356021111 329.786472708 486.228376667 328.035751389 C 487.100732222 326.285030071 487.973087778 324.509581253 488.845443333 322.779953163 C 489.717798889 321.050325072 490.590154444 319.367250895 491.46251 317.796294504 C 492.334865556 316.225338113 493.207221111 314.767568279 494.079576667 313.477017458 C 494.951932222 312.186466637 495.824287778 311.064432459 496.696643333 310.148020405 C 497.568998889 309.231608351 498.441354444 308.52221533 499.31371 308.036314579 C 500.186065556 307.550413828 501.058421111 307.289362043 501.930776667 307.247355235 C 502.803132222 307.205348426 503.675487778 307.383567602 504.547843333 307.754511119 C 505.420198889 308.125454635 506.292554444 308.69000988 507.16491 309.401723809 C 508.037265556 310.113437738 508.909621111 310.972815504 509.781976667 311.919091359 C 510.654332222 312.865367215 511.526687778 313.898613636 512.399043333 314.949820105 C 513.271398889 316.001026573 514.143754444 317.069825649 515.01611 318.085853278 C 515.888465556 319.101880908 516.760821111 320.064366428 517.633176667 320.908618648 C 518.505532222 321.752870869 519.377887778 322.477792859 520.250243333 323.030826207 C 521.122598889 323.583859555 521.994954444 323.963690602 522.86731 324.135142081 C 523.739665556 324.30659356 524.612021111 324.268266261 525.484376667 324.005876787 C 526.356732222 323.743487313 527.229087778 323.255690624 528.101443333 322.550523499 C 528.973798889 321.845356375 529.846154444 320.92166226 530.71851 319.808995575 C 531.590865556 318.69632889 532.463221111 317.393837055 533.335576667 315.949640893 C 534.207932222 314.505444732 535.080287778 312.919080777 535.952643333 311.252431017 C 536.824998889 309.585781257 537.697354444 307.838817617 538.56971 306.081003855 C 539.442065556 304.323190092 540.314421111 302.554936328 541.186776667 300.846351592 C 542.059132222 299.137766857 542.931487778 297.489658513 543.803843333 295.965779934 C 544.676198889 294.441901354 545.548554444 293.043376523 546.42091 291.821236885 C 547.293265556 290.599097247 548.165621111 289.554671168 549.037976667 288.721172281 C 549.910332222 287.887673393 550.782687778 287.266501797 551.655043333 286.869736673 C 552.527398889 286.472971548 553.399754444 286.301944919 554.27211 286.346395313 C 555.144465556 286.390845707 556.016821111 286.651904059 556.889176667 287.097992931 C 557.761532222 287.544081803 558.633887778 288.176018108 559.506243333 288.944061698 C 560.378598889 289.712105288 561.250954444 290.616677477 562.12331 291.594842346 C 562.995665556 292.573007214 563.868021111 293.624748408 564.740376667 294.680218875 C 565.612732222 295.735689342 566.485087778 296.794436693 567.357443333 297.786677513 C 568.229798889 298.778918334 569.102154444 299.703809375 569.97451 300.498599277 C 570.846865556 301.293389178 571.719221111 301.956928034 572.591576667 302.43976275 C 573.463932222 302.922597467 574.336287778 303.223386308 575.208643333 303.310912721 C 576.080998889 303.398439133 576.953354444 303.271303536 577.82571 302.919643129"
       style="fill:none;stroke:#aa0000;stroke-width:1.75000000000000000;stroke-linecap:round;stroke-miterlimit:4;stroke-opacity:1;stroke-dasharray:none" />
    <path
       style="fill:none;stroke:#0000aa;stroke-width:1.75;stroke-linecap:round;stroke-linejoin:miter;stroke-miterlimit:4;stroke-opacity:1;stroke-dasharray:none"
       d="M 318.73611,407.43415 596.37078,295.50872"
       id="path60952"
       inkscape:connector-curvature="0"
       sodipodi:nodetypes="cc" />
  </g>
  <g
     inkscape:groupmode="layer"
     id="layer5"
     inkscape:label="top">
    <g
       transform="translate(71.720831,234.35539)"
       ns0:text="$2^{15}$"
       ns0:preamble=""
       id="g7885">
      <defs
         id="defs7887">
        <g
           id="g7889">
          <symbol
             style="overflow:visible"
             overflow="visible"
             id="textext-0ec877f8-0">
            <path
               inkscape:connector-curvature="0"
               style="stroke:none"
               d=""
               id="path7892" />
          </symbol>
          <symbol
             style="overflow:visible"
             overflow="visible"
             id="textext-0ec877f8-1">
            <path
               inkscape:connector-curvature="0"
               style="stroke:none"
               d="m 1.265625,-0.765625 1.0625,-1.03125 c 1.546875,-1.375 2.140625,-1.90625 2.140625,-2.90625 0,-1.140625 -0.890625,-1.9375 -2.109375,-1.9375 -1.125,0 -1.859375,0.921875 -1.859375,1.8125 0,0.546875 0.5,0.546875 0.53125,0.546875 0.171875,0 0.515625,-0.109375 0.515625,-0.53125 0,-0.25 -0.1875,-0.515625 -0.53125,-0.515625 -0.078125,0 -0.09375,0 -0.125,0.015625 0.21875,-0.65625 0.765625,-1.015625 1.34375,-1.015625 0.90625,0 1.328125,0.8125 1.328125,1.625 C 3.5625,-3.90625 3.078125,-3.125 2.515625,-2.5 l -1.90625,2.125 C 0.5,-0.265625 0.5,-0.234375 0.5,0 l 3.703125,0 0.265625,-1.734375 -0.234375,0 C 4.171875,-1.4375 4.109375,-1 4,-0.84375 3.9375,-0.765625 3.28125,-0.765625 3.0625,-0.765625 z"
               id="path7895" />
          </symbol>
          <symbol
             style="overflow:visible"
             overflow="visible"
             id="textext-0ec877f8-2">
            <path
               inkscape:connector-curvature="0"
               style="stroke:none"
               d=""
               id="path7898" />
          </symbol>
          <symbol
             style="overflow:visible"
             overflow="visible"
             id="textext-0ec877f8-3">
            <path
               inkscape:connector-curvature="0"
               style="stroke:none"
               d="m 2.328125,-4.4375 c 0,-0.1875 0,-0.1875 -0.203125,-0.1875 -0.453125,0.4375 -1.078125,0.4375 -1.359375,0.4375 l 0,0.25 c 0.15625,0 0.625,0 1,-0.1875 l 0,3.546875 c 0,0.234375 0,0.328125 -0.6875,0.328125 l -0.265625,0 0,0.25 c 0.125,0 0.984375,-0.03125 1.234375,-0.03125 0.21875,0 1.09375,0.03125 1.25,0.03125 l 0,-0.25 -0.265625,0 c -0.703125,0 -0.703125,-0.09375 -0.703125,-0.328125 z"
               id="path7901" />
          </symbol>
          <symbol
             style="overflow:visible"
             overflow="visible"
             id="textext-0ec877f8-4">
            <path
               inkscape:connector-curvature="0"
               style="stroke:none"
               d="m 1.078125,-3.890625 c 0.359375,0.09375 0.5625,0.09375 0.671875,0.09375 0.921875,0 1.46875,-0.625 1.46875,-0.734375 0,-0.078125 -0.046875,-0.09375 -0.078125,-0.09375 -0.015625,0 -0.03125,0 -0.0625,0.015625 -0.171875,0.0625 -0.53125,0.203125 -1.046875,0.203125 -0.203125,0 -0.5625,-0.015625 -1.015625,-0.1875 C 0.9375,-4.625 0.921875,-4.625 0.921875,-4.625 c -0.09375,0 -0.09375,0.078125 -0.09375,0.1875 l 0,2.046875 c 0,0.125 0,0.203125 0.109375,0.203125 0.0625,0 0.078125,0 0.140625,-0.09375 0.296875,-0.375 0.734375,-0.4375 0.96875,-0.4375 0.421875,0 0.609375,0.328125 0.640625,0.390625 0.125,0.234375 0.171875,0.5 0.171875,0.90625 0,0.203125 0,0.609375 -0.21875,0.921875 -0.171875,0.25 -0.46875,0.421875 -0.8125,0.421875 -0.453125,0 -0.921875,-0.25 -1.09375,-0.71875 0.265625,0.015625 0.40625,-0.15625 0.40625,-0.34375 0,-0.296875 -0.265625,-0.34375 -0.359375,-0.34375 0,0 -0.34375,0 -0.34375,0.375 0,0.625 0.578125,1.25 1.40625,1.25 0.890625,0 1.671875,-0.65625 1.671875,-1.546875 0,-0.78125 -0.59375,-1.5 -1.453125,-1.5 -0.3125,0 -0.671875,0.0625 -0.984375,0.328125 z"
               id="path7904" />
          </symbol>
        </g>
      </defs>
    </g>
    <g
       transform="translate(80.312415,276.00755)"
       ns0:text="$0$"
       ns0:preamble=""
       id="g8497">
      <defs
         id="defs8499">
        <g
           id="g8501">
          <symbol
             style="overflow:visible"
             overflow="visible"
             id="textext-a5f92ac1-0">
            <path
               inkscape:connector-curvature="0"
               style="stroke:none"
               d=""
               id="path8504" />
          </symbol>
          <symbol
             style="overflow:visible"
             overflow="visible"
             id="textext-a5f92ac1-1">
            <path
               inkscape:connector-curvature="0"
               style="stroke:none"
               d="m 4.578125,-3.1875 c 0,-0.796875 -0.046875,-1.59375 -0.390625,-2.328125 -0.453125,-0.96875 -1.28125,-1.125 -1.6875,-1.125 -0.609375,0 -1.328125,0.265625 -1.75,1.1875 -0.3125,0.6875 -0.359375,1.46875 -0.359375,2.265625 0,0.75 0.03125,1.640625 0.453125,2.40625 0.421875,0.796875 1.15625,1 1.640625,1 0.53125,0 1.296875,-0.203125 1.734375,-1.15625 0.3125,-0.6875 0.359375,-1.46875 0.359375,-2.25 z M 2.484375,0 C 2.09375,0 1.5,-0.25 1.328125,-1.203125 1.21875,-1.796875 1.21875,-2.71875 1.21875,-3.3125 c 0,-0.640625 0,-1.296875 0.078125,-1.828125 0.1875,-1.1875 0.9375,-1.28125 1.1875,-1.28125 0.328125,0 0.984375,0.1875 1.171875,1.171875 0.109375,0.5625 0.109375,1.3125 0.109375,1.9375 0,0.75 0,1.421875 -0.109375,2.0625 C 3.5,-0.296875 2.9375,0 2.484375,0 z"
               id="path8507" />
          </symbol>
        </g>
      </defs>
      <g
         id="textext-a5f92ac1-2">
        <g
           style="fill:#000000;fill-opacity:1"
           id="g8510">
          <use
             height="1052.3622"
             width="744.09448"
             xlink:href="#textext-a5f92ac1-1"
             x="223.43201"
             y="134.765"
             id="use8512" />
        </g>
      </g>
    </g>
  </g>
</svg>
